<?xml version="1.0" encoding="UTF-8" standalone="no"?>
<svg
   xmlns:svg="http://www.w3.org/2000/svg"
   xmlns="http://www.w3.org/2000/svg"
   width="800.0"
   height="240.0"

>
    <g transform="scale(3.8806709844976814, -3.8806709844976814)   translate(79.85322985346309,-26.42663727516593)" stroke-width="0.2576873958124129"  fill="none">
       <!-- hidden lines -->
       <g  stroke="rgb(160,160,160)" fill="none" stroke-dasharray="0.2576873958124129,0.2576873958124129" >
			<path d="M-26.107931709023195,-20.68929751555476 L-25.966282020441664,-20.76802448958791 L-25.821717522597673,-20.841336881388624 L-25.67441602536037,-20.909144518978394 L-25.524558705023665,-20.97136400105643 L-25.37232988146497,-21.027918799580704 L-25.217916791437453,-21.078739353895063 L-25.061509358274588,-21.12376315628671 L-24.903299958290344,-21.162934828868732 L-24.743483184162244,-21.19620619169322 L-24.58225560558838,-21.223536322011096 L-24.419815527512768,-21.244891604605847 L-24.256362746216357,-21.260245773139182 L-24.092098303573813,-21.26957994245785 L-23.927224239778187,-21.27288263182176 L-23.761943344837725,-21.27014977902496 L-23.59645890915044,-21.261384745392018 " />
			<path d="M-23.596458909150435,-21.261384745392014 L23.596458909150435,-17.903176283042917 " />
			<path d="M28.315750690980522,-12.671785308253641 L28.31432932852868,-12.792029756488747 L28.310066097348738,-12.91240405988509 L28.30296356545175,-13.032835709463383 L28.293026011137357,-13.153252161701156 L28.280259420416677,-13.273580882230236 L28.264671483406595,-13.393749389528763 L28.24627158969749,-13.513685298581326 L28.22507082269732,-13.633316364481006 L28.201081952955374,-13.752570525946997 L28.174319430469787,-13.871375948731636 L28.14479937598339,-13.989661068890655 L28.112539571273174,-14.107354635890633 L28.077559448439228,-14.224385755527663 L28.03988007819956,-14.340683932631345 L27.99952415719787,-14.456179113528464 L27.956515994331973,-14.570801728240689 L27.910881496111,-14.684482732390931 L27.86264815105029,-14.797153648793099 L27.811845013113352,-14.90874660870019 L27.758502684210825,-15.019194392685883 L27.702653295767046,-15.128430471135015 L27.644330489365263,-15.23638904431853 L27.583569396483227,-15.343005082028771 L27.520406617331286,-15.448214362751251 L27.454880198805792,-15.551953512349295 L27.387029611571073,-15.654160042238237 L27.316895726283786,-15.754772387026225 L27.24452078897395,-15.853729941598893 L27.16994839559753,-15.950973097625626 L27.09322346577585,-16.046443279465397 L27.014392215737704,-16.14008297945052 L26.933502130480434,-16.231835792527136 L26.850601935166715,-16.32164645023151 L26.76574156577437,-16.409460853981678 L26.678972139016786,-16.495226107664408 L26.590345921552125,-16.578890549497856 L26.49991629849984,-16.660403783150677 L26.407737741283473,-16.739716708098893 L26.313865774819117,-16.816781549202215 L26.21835694406927,-16.891551885482006 L26.12126877998227,-16.96398267808353 L26.0226597648378,-17.034030297405685 L25.92258929701936,-17.101652549381846 L25.821117655234886,-17.166808700895977 L25.71830596220712,-17.229459504318754 L25.614216147855558,-17.289567221148857 L25.50891091199221,-17.347095644745238 L25.40245368655353,-17.402010122136655 L25.294908597391444,-17.45427757489531 L25.186340425646282,-17.503866519062065 L25.076814568725084,-17.550747084111205 L24.966397000908618,-17.59489103094332 L24.85515423361096,-17.63627176889549 L24.743153275315503,-17.674864371758495 L24.630461591211528,-17.710645592791444 L24.517147062555733,-17.74359387872473 L24.403277945783074,-17.773689382742923 L24.288922831391652,-17.800913976439745 L24.17415060262637,-17.82525126073795 L24.059030393986216,-17.846686575767503 L23.943631549580257,-17.86520700969615 L23.828023581357332,-17.880801406507015 L23.712276127234627,-17.89346037271857 L23.596458909150453,-17.903176283042917 " />
			<path d="M28.315750690980522,16.70163546307256 L28.313401935262483,16.855902975199236 L28.306358006024176,17.00968266080987 L28.29462591468589,17.162821449938637 L28.278217339193336,17.315166910558343 L28.2571486123936,17.466567400308946 L28.231440705777672,17.61687221744008 L28.201119208605746,17.76593175081727 L28.16621430243605,17.913597628842602 L28.126760731082594,18.05972286714156 L28.08279776603169,18.204162014869027 L28.034369167351723,18.34677129948886 L27.98152314013503,18.48740876988289 L27.924312286515306,18.62593443764691 L27.8627935533082,18.762210416433017 L27.797028175327355,18.896101059199573 L27.727081614432187,19.027473093232235 L27.65302349436815,19.156195752801562 L27.574927531464297,19.282140909325268 L27.4928714612572,19.40518319890546 L27.40693696111414,19.525200147113942 L27.317209568932718,19.64207229090144 L27.22377859799772,19.755683297509265 L27.12673704808003,19.86592008026521 L27.026181512866074,19.97267291114828 L26.92221208380992,20.075835530010334 L26.814932250503777,20.17530525034579 L26.704448797666004,20.270983061504232 L26.59087169884925,20.362773727244107 L26.474314006974424,20.450585880529438 L26.35489174179954,20.534332114475166 L26.232723774435428,20.613929069350675 L26.107931709023212,20.68929751555475 " />
			<path d="M28.315750690980522,-12.671785308253641 L28.315750690980522,16.701635463072563 " />

       </g>

       <!-- solid lines -->
       <g  stroke="rgb(0,0,0)" fill="none">
			<path d="M-21.7087421964184,-20.539587991471528 L-21.7087421964184,8.833832779854678 " />
			<path d="M-28.315750690980522,-16.701635463072556 L-28.315750690980522,12.671785308253646 " />
			<path d="M-21.7087421964184,-20.539587991471528 L-21.70639344070036,-20.693855503598204 L-21.699349511462053,-20.84763518920884 L-21.687617420123765,-21.00077397833761 L-21.671208844631213,-21.15311943895731 L-21.650140117831477,-21.304519928707915 L-21.62443221121555,-21.454824745839048 L-21.594110714043623,-21.603884279216235 L-21.55920580787393,-21.75155015724157 L-21.51975223652047,-21.897675395540528 L-21.47578927146957,-22.042114543267992 L-21.4273606727896,-22.184723827887826 L-21.37451464557291,-22.325361298281855 L-21.31730379195318,-22.463886966045884 L-21.255785058746074,-22.60016294483199 L-21.190019680765232,-22.734053587598545 L-21.120073119870064,-22.865425621631204 L-21.046014999806026,-22.99414828120053 L-20.967919036902174,-23.120093437724236 L-20.885862966695075,-23.243135727304427 L-20.799928466552018,-23.36315267551291 L-20.710201074370595,-23.480024819300407 L-20.6167701034356,-23.593635825908233 L-20.519728553517908,-23.703872608664174 L-20.41917301830395,-23.81062543954725 L-20.315203589247794,-23.913788058409306 L-20.20792375594165,-24.013257778744762 L-20.09744030310388,-24.108935589903204 L-19.983863204287125,-24.20072625564308 L-19.8673055124123,-24.288538408928403 L-19.747883247237418,-24.372284642874135 L-19.625715279873305,-24.45188159774964 L-19.500923214461107,-24.527250043953707 " />
			<path d="M-19.50092321446107,-24.527250043953728 L-19.35927352587954,-24.605977017986877 L-19.21470902803555,-24.679289409787593 L-19.067407530798246,-24.747097047377363 L-18.917550210461542,-24.809316529455398 L-18.765321386902848,-24.865871327979672 L-18.61090829687533,-24.91669188229403 L-18.454500863712465,-24.96171568468568 L-18.29629146372822,-25.0008873572677 L-18.13647468960012,-25.03415872009219 L-17.975247111026256,-25.061488850410065 L-17.812807032950644,-25.082844133004812 L-17.649354251654234,-25.09819830153815 L-17.48508980901169,-25.107532470856817 L-17.320215745216064,-25.110835160220727 L-17.154934850275602,-25.108102307423927 L-16.989450414588315,-25.099337273790987 " />
			<path d="M-21.7087421964184,8.833832779854673 L-21.707320833966556,8.954077228089778 L-21.703057602786615,9.074451531486122 L-21.695955070889628,9.194883181064416 L-21.686017516575234,9.315299633302187 L-21.673250925854553,9.43562835383127 L-21.65766298884447,9.555796861129794 L-21.639263095135366,9.675732770182357 L-21.618062328135196,9.795363836082036 L-21.59407345839325,9.914617997548028 L-21.567310935907663,10.033423420332664 L-21.537790881421266,10.151708540491683 L-21.50553107671105,10.269402107491663 L-21.470550953877105,10.386433227128691 L-21.432871583637436,10.502731404232373 L-21.39251566263575,10.618226585129491 L-21.349507499769853,10.732849199841715 L-21.30387300154888,10.846530203991957 L-21.25563965648817,10.959201120394127 L-21.204836518551232,11.070794080301216 L-21.151494189648705,11.18124186428691 L-21.095644801204926,11.290477942736043 L-21.037321994803143,11.398436515919556 L-20.976560901921104,11.5050525536298 L-20.913398122769166,11.610261834352281 L-20.84787170424367,11.714000983950324 L-20.78002111700895,11.81620751383927 L-20.709887231721662,11.916819858627255 L-20.637512294411827,12.015777413199922 L-20.562939901035406,12.113020569226657 L-20.486214971213727,12.208490751066426 L-20.407383721175584,12.302130451051546 L-20.32649363591831,12.393883264128164 L-20.243593440604595,12.483693921832538 L-20.15873307121225,12.571508325582704 L-20.071963644454666,12.657273579265436 L-19.983337426990005,12.740938021098884 L-19.89290780393772,12.822451254751705 L-19.800729246721357,12.90176417969992 L-19.706857280256997,12.978829020803246 L-19.611348449507148,13.053599357083035 L-19.51426028542015,13.12603014968456 L-19.415651270275678,13.196077769006719 L-19.315580802457237,13.263700020982878 L-19.214109160672763,13.328856172497009 L-19.111297467644995,13.391506975919786 L-19.007207653293435,13.451614692749889 L-18.901902417430087,13.509143116346271 L-18.795445191991412,13.564057593737688 L-18.68790010282932,13.616325046496343 L-18.57933193108416,13.665913990663096 L-18.46980607416296,13.712794555712236 L-18.359388506346498,13.756938502544351 L-18.248145739048844,13.79831924049652 L-18.136144780753384,13.836911843359527 L-18.023453096649412,13.872693064392474 L-17.910138567993613,13.905641350325759 L-17.796269451220954,13.935736854343954 L-17.681914336829536,13.962961448040776 L-17.56714210806425,13.987298732338981 L-17.4520218994241,14.008734047368534 L-17.336623055018144,14.027254481297179 L-17.221015086795216,14.042848878108042 L-17.105267632672508,14.0555078443196 L-16.989450414588358,14.065223754643949 " />
			<path d="M-16.989450414588312,-25.099337273790983 L30.20346740371256,-21.741128811441886 " />
			<path d="M-16.989450414588312,14.065223754643949 L30.20346740371256,17.423432216993046 " />
			<path d="M34.922759185542645,-16.50973783665261 L34.9213378230908,-16.629982284887717 L34.91707459191086,-16.750356588284056 L34.90997206001388,-16.870788237862353 L34.90003450569948,-16.991204690100123 L34.8872679149788,-17.111533410629203 L34.87167997796872,-17.23170191792773 L34.85328008425961,-17.351637826980294 L34.83207931725944,-17.471268892879973 L34.8080904475175,-17.590523054345965 L34.78132792503191,-17.709328477130605 L34.75180787054551,-17.827613597289623 L34.7195480658353,-17.945307164289602 L34.684567943001355,-18.062338283926632 L34.64688857276168,-18.178636461030315 L34.60653265175999,-18.294131641927432 L34.563524488894096,-18.408754256639657 L34.51788999067312,-18.522435260789898 L34.46965664561242,-18.635106177192068 L34.41885350767548,-18.74669913709916 L34.36551117877295,-18.85714692108485 L34.309661790329166,-18.966382999533984 L34.25133898392738,-19.0743415727175 L34.19057789104535,-19.18095761042774 L34.127415111893406,-19.28616689115022 L34.06188869336791,-19.38990604074826 L33.994038106133196,-19.492112570637207 L33.923904220845905,-19.592724915425194 L33.851529283536074,-19.69168246999786 L33.77695689015965,-19.788925626024596 L33.70023196033797,-19.884395807864365 L33.62140071029983,-19.978035507849487 L33.54051062504256,-20.0697883209261 L33.45761042972884,-20.159598978630477 L33.37275006033649,-20.247413382380643 L33.28598063357891,-20.333178636063376 L33.19735441611425,-20.416843077896825 L33.106924793061964,-20.498356311549646 L33.0147462358456,-20.57766923649786 L32.920874269381244,-20.654734077601184 L32.825365438631394,-20.729504413880974 L32.72827727454439,-20.801935206482497 L32.62966825939992,-20.871982825804654 L32.52959779158149,-20.939605077780815 L32.42812614979701,-21.004761229294946 L32.32531445676924,-21.067412032717723 L32.22122464241768,-21.127519749547826 L32.11591940655433,-21.18504817314421 L32.00946218111566,-21.239962650535624 L31.901917091953568,-21.29223010329428 L31.793348920208405,-21.341819047461033 L31.683823063287207,-21.388699612510173 L31.57340549547074,-21.432843559342288 L31.462162728173084,-21.47422429729446 L31.350161769877626,-21.512816900157464 L31.23747008577365,-21.548598121190413 L31.124155557117856,-21.581546407123696 L31.010286440345197,-21.61164191114189 L30.895931325953775,-21.638866504838713 L30.781159097188493,-21.66320378913692 L30.66603888854834,-21.68463910416647 L30.55064004414238,-21.703159538095118 L30.435032075919455,-21.718753934905983 L30.31928462179675,-21.731412901117537 L30.203467403712576,-21.741128811441886 " />
			<path d="M34.922759185542645,12.863682934673593 L34.92041042982461,13.017950446800265 L34.9133665005863,13.1717301324109 L34.90163440924801,13.32486892153967 L34.885225833755456,13.477214382159374 L34.86415710695572,13.628614871909978 L34.838449200339795,13.77891968904111 L34.80812770316787,13.9279792224183 L34.773222796998176,14.075645100443635 L34.73376922564472,14.221770338742592 L34.68980626059381,14.366209486470058 L34.64137766191385,14.508818771089892 L34.588531634697155,14.649456241483922 L34.531320781077426,14.787981909247943 L34.469802047870324,14.924257888034049 L34.40403666988948,15.058148530800606 L34.33409010899431,15.189520564833265 L34.26003198893027,15.318243224402591 L34.18193602602642,15.444188380926299 L34.099879955819326,15.56723067050649 L34.013945455676264,15.687247618714975 L33.92421806349484,15.80411976250247 L33.830787092559845,15.917730769110296 L33.733745542642154,16.02796755186624 L33.6331900074282,16.13472038274931 L33.52922057837205,16.237883001611365 L33.421940745065896,16.33735272194682 L33.31145729222813,16.433030533105264 L33.19788019341137,16.52482119884514 L33.08132250153655,16.61263335213047 L32.961900236361664,16.696379586076198 L32.83973226899755,16.775976540951703 L32.714940203585336,16.85134498715578 " />
			<path d="M32.714940203585314,16.85134498715579 L32.57329051500379,16.93007196118894 L32.428726017159796,17.003384352989656 L32.281424519922496,17.071191990579422 L32.13156719958579,17.13341147265746 L31.979338376027098,17.189966271181735 L31.824925285999576,17.240786825496095 L31.66851785283671,17.28581062788774 L31.510308452852467,17.324982300469763 L31.350491678724364,17.358253663294253 L31.189264100150503,17.385583793612128 L31.026824022074887,17.40693907620688 L30.86337124077848,17.422293244740214 L30.699106798135936,17.43162741405888 L30.53423273434031,17.43493010342279 L30.36895183939985,17.43219725062599 L30.20346740371258,17.42343221699305 " />
			<path d="M34.922759185542645,-16.50973783665261 L34.922759185542645,12.863682934673594 " />
			<path d="M-28.315750690980522,-16.70163546307256 L-28.313401935262483,-16.855902975199236 L-28.306358006024176,-17.009682660809872 L-28.294625914685888,-17.16282144993864 L-28.278217339193336,-17.315166910558343 L-28.2571486123936,-17.466567400308946 L-28.231440705777672,-17.61687221744008 L-28.201119208605746,-17.765931750817266 L-28.166214302436053,-17.913597628842602 L-28.126760731082594,-18.05972286714156 L-28.082797766031693,-18.204162014869024 L-28.034369167351723,-18.346771299488857 L-27.98152314013503,-18.48740876988289 L-27.924312286515303,-18.625934437646915 L-27.862793553308197,-18.76221041643302 L-27.797028175327355,-18.896101059199577 L-27.727081614432187,-19.027473093232235 L-27.65302349436815,-19.156195752801562 L-27.574927531464297,-19.282140909325268 L-27.4928714612572,-19.40518319890546 L-27.40693696111414,-19.525200147113942 L-27.317209568932718,-19.64207229090144 L-27.223778597997722,-19.755683297509265 L-27.12673704808003,-19.865920080265205 L-27.026181512866074,-19.97267291114828 L-26.922212083809917,-20.075835530010337 L-26.814932250503773,-20.175305250345794 L-26.704448797666004,-20.270983061504236 L-26.59087169884925,-20.36277372724411 L-26.474314006974424,-20.450585880529438 L-26.35489174179954,-20.534332114475166 L-26.232723774435428,-20.613929069350675 L-26.10793170902323,-20.68929751555474 " />
			<path d="M-28.315750690980522,12.671785308253641 L-28.31432932852868,12.792029756488747 L-28.310066097348738,12.912404059885091 L-28.30296356545175,13.032835709463384 L-28.293026011137357,13.153252161701156 L-28.280259420416677,13.273580882230238 L-28.264671483406595,13.393749389528763 L-28.24627158969749,13.513685298581326 L-28.22507082269732,13.633316364481004 L-28.201081952955374,13.752570525946997 L-28.174319430469787,13.871375948731632 L-28.14479937598339,13.989661068890651 L-28.112539571273174,14.107354635890632 L-28.077559448439228,14.22438575552766 L-28.03988007819956,14.340683932631341 L-27.99952415719787,14.45617911352846 L-27.956515994331976,14.570801728240683 L-27.910881496111003,14.684482732390926 L-27.862648151050294,14.797153648793095 L-27.811845013113356,14.908746608700184 L-27.75850268421083,15.019194392685879 L-27.70265329576705,15.128430471135012 L-27.644330489365267,15.236389044318525 L-27.583569396483227,15.34300508202877 L-27.52040661733129,15.44821436275125 L-27.454880198805792,15.551953512349293 L-27.387029611571073,15.654160042238239 L-27.316895726283786,15.754772387026224 L-27.24452078897395,15.85372994159889 L-27.16994839559753,15.950973097625626 L-27.09322346577585,16.046443279465393 L-27.014392215737708,16.140082979450515 L-26.933502130480434,16.231835792527132 L-26.85060193516672,16.321646450231505 L-26.765741565774373,16.409460853981674 L-26.67897213901679,16.495226107664404 L-26.590345921552128,16.578890549497853 L-26.499916298499844,16.660403783150674 L-26.40773774128348,16.73971670809889 L-26.31386577481912,16.816781549202215 L-26.21835694406927,16.891551885482002 L-26.121268779982273,16.96398267808353 L-26.0226597648378,17.034030297405685 L-25.92258929701936,17.101652549381846 L-25.821117655234886,17.166808700895977 L-25.71830596220712,17.229459504318754 L-25.614216147855558,17.289567221148857 L-25.50891091199221,17.347095644745238 L-25.402453686553535,17.40201012213666 L-25.294908597391444,17.45427757489531 L-25.186340425646282,17.503866519062065 L-25.076814568725084,17.550747084111205 L-24.96639700090862,17.59489103094332 L-24.855154233610968,17.63627176889549 L-24.743153275315507,17.674864371758495 L-24.630461591211535,17.710645592791444 L-24.517147062555736,17.743593878724727 L-24.403277945783078,17.773689382742923 L-24.28892283139166,17.800913976439745 L-24.174150602626373,17.82525126073795 L-24.059030393986223,17.846686575767503 L-23.943631549580267,17.86520700969615 L-23.82802358135734,17.88080140650701 L-23.71227612723463,17.893460372718568 L-23.59645890915048,17.903176283042917 " />
			<path d="M-23.596458909150435,17.903176283042917 L23.596458909150435,21.261384745392014 " />
			<path d="M26.107931709023195,20.689297515554756 L25.966282020441664,20.76802448958791 L25.821717522597673,20.841336881388624 L25.67441602536037,20.909144518978394 L25.524558705023665,20.97136400105643 L25.372329881464974,21.027918799580704 L25.217916791437453,21.078739353895063 L25.061509358274588,21.123763156286707 L24.903299958290344,21.162934828868732 L24.74348318416224,21.19620619169322 L24.58225560558838,21.2235363220111 L24.419815527512764,21.244891604605847 L24.256362746216357,21.260245773139182 L24.092098303573813,21.26957994245785 L23.927224239778187,21.27288263182176 L23.761943344837725,21.27014977902496 L23.596458909150456,21.261384745392018 " />
			<path d="M-28.315750690980522,-16.70163546307256 L-21.7087421964184,-20.539587991471528 " />
			<path d="M-28.315750690980522,12.671785308253641 L-21.7087421964184,8.833832779854673 " />
			<path d="M-23.596458909150435,17.903176283042917 L-16.989450414588312,14.065223754643949 " />
			<path d="M23.596458909150435,21.261384745392014 L30.20346740371256,17.423432216993046 " />
			<path d="M-26.107931709023195,-20.689297515554756 L-19.50092321446107,-24.527250043953725 " />
			<path d="M26.107931709023195,20.689297515554756 L32.714940203585314,16.851344987155787 " />

       </g>
    </g>
    <g transform="translate(20,210.0)" stroke="rgb(0,0,255)">
        <line x1="30" y1="-30" x2="75" y2="-33" stroke-width="3" stroke="#000000" />
         <text x="80" y="-30" style="stroke:#000000">X </text>

        <line x1="30" y1="-30" x2="30" y2="-75" stroke-width="3" stroke="#000000" />
         <text x="25" y="-85" style="stroke:#000000">Y </text>

        <line x1="30" y1="-30" x2="58" y2="-15" stroke-width="3" stroke="#000000" />
         <text x="65" y="-5" style="stroke:#000000">Z </text>
        <!--
            <line x1="0" y1="0" x2="3.8806709844976814" y2="0" stroke-width="3" />
            <text x="0" y="20" style="stroke:#000000">1  mm </text>
        -->
    </g>
</svg>
