<?xml version="1.0" encoding="UTF-8" standalone="no"?>
<svg
   xmlns:svg="http://www.w3.org/2000/svg"
   xmlns="http://www.w3.org/2000/svg"
   width="800.0"
   height="240.0"

>
    <g transform="scale(3.8271518970117784, -3.8271518970117784)   translate(80.57393259281699,-26.823023781810573)" stroke-width="0.2612909095091823"  fill="none">
       <!-- hidden lines -->
       <g  stroke="rgb(160,160,160)" fill="none" stroke-dasharray="0.2612909095091823,0.2612909095091823" >
			<path d="M-28.315750690980522,-21.597205591626924 L28.31575069098053,-17.567355436808004 " />
			<path d="M28.315750690980522,-17.567355436808008 L34.922759185542645,-21.405307965206976 " />
			<path d="M28.315750690980522,-17.567355436808008 L28.315750690980522,21.597205591626924 " />
			<path d="M-4.719291781830087,-0.335820846234912 L-4.716673570349671,-0.1725840958437047 L-4.708821841018623,-0.009155849913770157 L-4.695745305944112,0.15428255514700587 L-4.677458474563503,0.317549771658403 L-4.6539816375450025,0.48046464188726706 L-4.62534084427358,0.642846399056173 L-4.591567873947142,0.8045148679182887 L-4.552700200315022,0.9652906646758913 L-4.5087809500979334,1.124995396020703 L-4.459858855135505,1.2834518570752056 L-4.405988198314488,1.4404842280153005 L-4.347228753337662,1.5959182691561355 L-4.283645718400237,1.7495815142846542 L-4.215309643847361,1.9013034620243303 L-4.142296353893002,2.0509157650197696 L-4.064686862487058,2.198252416731253 L-3.9825672834240455,2.343149935631962 L-3.896028734793126,2.4854475466035066 L-3.8051672378754553,2.6249873593284816 L-3.7100836106010777,2.7616145434821076 L-3.610883355683551,2.895177500528578 L-3.5076765435564465,3.0255280319314743 L-3.4005776902415965,3.152521503591629 L-3.289705630284634,3.2760170063299414 L-3.1751833848987627,3.395877512237145 L-3.057138025463115,3.511970026716968 L-2.935700532527141,3.6241657360540196 L-2.8110056504774357,3.7323401503426883 L-2.683191738028324,3.836373241618413 L-2.5524006147020586,3.9361495770380817 L-2.4187774034689733,4.031558446961798 L-2.282470369722214,4.122493987793869 L-2.1436307567656985,4.208855299446745 L-2.002412617997854,4.290546557297544 L-1.858972645977334,4.367477118512958 L-1.7134699985603832,4.439561622624559 L-1.5660661223027594,4.506720086242913 L-1.4169245733221698,4.568877991805391 L-1.2662108358199673,4.6259663702592375 L-1.1140921384635234,4.677921877588111 L-0.9607372688329253,4.72468686509723 L-0.8063163861379877,4.766209443379102 L-0.6510008324133187,4.802443539888868 L-0.49496294240092686,4.833348950065399 L-0.338375852331372,4.858891381941396 L-0.18141330781558754,4.879042494193005 L-0.02424947106055194,4.893779927586729 L0.132941272377291,4.903087329788751 L0.28998450708643075,4.906954373509119 L0.44670598132781547,4.905376767960684 L0.6029318003807729,4.898356263620064 L0.7584886194927881,4.885900650285353 L0.9132038362190531,4.868023748432732 L1.0669057819383605,4.844745393881566 L1.2194239123328605,4.816091415785022 L1.3705889966202869,4.782093607970599 L1.5202333053287584,4.74278969366239 L1.6681907964057205,4.698223283624223 L1.8142972994545632,4.648443827770112 L1.958390697894528,4.593506560295707 L2.1003111088417032,4.533472438391643 L2.2399010605115826,4.468408074606773 L2.377005666946311,4.398385662936343 L2.5114727998727218,4.323482898717129 " />
			<path d="M2.511472799872758,4.323482898717109 L2.6318306743980955,4.250893086763487 L2.749753519707961,4.174370252462033 L2.8651322309209895,4.0939851964683465 L2.9778600570461773,4.009812292852817 L3.087832699751311,3.9219294202880564 L3.194948409862137,3.8304178899937833 L3.2991080815030034,3.735362370505853 L3.4002153437918525,3.6368508093390126 L3.4981766500047384,3.5349743516158685 L3.5929013641273704,3.4298272557373664 L3.6843018447136036,3.3215068061727835 L3.7722935259732804,3.2101132234499397 L3.8567949960144188,3.095749571428903 L3.9377280721673253,2.9785216619449724 L4.015017873320975,2.8585379569091844 L4.088592889204705,2.7359094679568914 L4.15838504655113,2.6107496537372983 L4.2243297720790745,2.4831743149389482 L4.286366052238225,2.353301487148313 L4.34443648966025,2.221251331640602 L4.398487356264139,2.0871460242038307 L4.448468642966639,1.9511096420990213 L4.494334105951791,1.8132680492611215 L4.536041309456746,1.6737487798468436 L4.573551665034302,1.53268092023718 L4.606830467255799,1.3901949896037682 L4.635846925821369,1.2464228191496047 L4.660574194047817,1.1014974301358333 L4.680989393707781,0.9555529108074724 L4.697073636197182,0.8087242923319349 L4.708812040011388,0.6611474238651471 L4.716193744513919,0.5129588468608421 " />
			<path d="M1.8908147500482073,-4.350911375259804 L1.7584316539945584,-4.417911821490973 L1.624421617236654,-4.480824715866562 L1.4889086288889322,-4.539591849954955 L1.3520180686306096,-4.594158851075641 L1.2138765907015623,-4.644475232606051 L1.0746120067189624,-4.690494440692915 L0.934353167423089,-4.732173897324946 L0.793229843461702,-4.769475039726971 L0.6513726053233114,-4.80236335603909 L0.5089127025304109,-4.830808417247823 L0.3659819422044478,-4.854783905339723 L0.22271256711489892,-4.874267637651395 L0.07923713332527789,-4.889241587393403 L-0.06431161245073941,-4.8996919003290555 L-0.20780085566956852,-4.9056089075926606 L-0.351097836840736,-4.9069871346353855 L-0.49406997435896066,-4.903825306290423 L-0.6365849871716529,-4.8961263479528085 L-0.7785110171683254,-4.883897382872784 L-0.919716751178705,-4.867149725565198 L-1.0600715424666425,-4.8458988713410625 L-1.199445531607423,-4.820164481970944 L-1.3377097666366482,-4.789970367493449 L-1.4747363223595016,-4.755344464185633 L-1.6103984187100269,-4.716318808715732 L-1.7445705380509158,-4.672929508502109 L-1.8771285413052607,-4.625216708305857 L-2.007949782812832,-4.573224553087956 L-2.136913223804621,-4.517001147165362 L-2.263899544390638,-4.456598509703798 L-2.3887912539573706,-4.392072526588457 L-2.51147279987274,-4.32348289871712 " />
			<path d="M-2.5114727998727577,-4.323482898717109 L-2.636264865284991,-4.2481144525130246 L-2.7584328326491065,-4.168517497637518 L-2.877855097823987,-4.084771263691788 L-2.994412789698814,-3.9969591104064595 L-3.1079898885155695,-3.9051684446665833 L-3.21847334135334,-3.8094906335081413 L-3.325753174659485,-3.7100209131726856 L-3.4297226037156374,-3.6068582943106327 L-3.530278138929593,-3.500105463427559 L-3.627319688847283,-3.3898686806716163 L-3.7207506597822824,-3.2762576740637903 L-3.8104780519637043,-3.1593855302762943 L-3.8964125521067636,-3.0393685820678082 L-3.9784686223138626,-2.916326292487619 L-4.0565645852177115,-2.7903811359639126 L-4.130622705281753,-2.6616584763945847 L-4.20056926617692,-2.5302864423619265 L-4.266334644157764,-2.3963957995953686 L-4.32785337736487,-2.2601198208092623 L-4.3850642309845975,-2.121594153045241 L-4.4379102582012875,-1.9809566826512117 L-4.486338856881255,-1.8383473980313785 L-4.530301821932159,-1.693908250303912 L-4.569755393285615,-1.5477830120049545 L-4.604660299455309,-1.4001171339796195 L-4.634981796627236,-1.2510576006024292 L-4.660689703243163,-1.1007527834712985 L-4.6817584300429,-0.9493522937206966 L-4.6981670055354545,-0.7970068331009935 L-4.709899096873742,-0.6438680439722253 L-4.716943026112049,-0.4900883583615894 L-4.719291781830087,-0.3358208462349561 " />
			<path d="M9.118481294434881,0.48553037031813906 L2.5114727998727577,4.323482898717108 " />
			<path d="M4.0955356946893655,-8.161435427116077 L-2.5114727998727577,-4.323482898717107 " />

       </g>

       <!-- solid lines -->
       <g  stroke="rgb(0,0,0)" fill="none">
			<path d="M-28.315750690980522,-21.597205591626924 L-21.7087421964184,-25.435158120025893 " />
			<path d="M-21.7087421964184,-25.435158120025893 L-21.7087421964184,13.729402908409039 " />
			<path d="M-28.315750690980522,17.567355436808008 L-21.7087421964184,13.729402908409039 " />
			<path d="M-28.315750690980522,-21.597205591626924 L-28.315750690980522,17.567355436808008 " />
			<path d="M-21.7087421964184,-25.435158120025893 L34.92275918554265,-21.405307965206973 " />
			<path d="M-21.7087421964184,13.729402908409039 L34.92275918554265,17.75925306322796 " />
			<path d="M34.922759185542645,-21.405307965206976 L34.922759185542645,17.759253063227955 " />
			<path d="M1.8877167127320362,-4.173773374633881 L1.8903349242124525,-4.010536624242674 L1.8981866535435001,-3.8471083783127393 L1.911263188618011,-3.683669973251963 L1.9295500199986204,-3.520402756740566 L1.9530268570171208,-3.357487886511702 L1.9816676502885429,-3.195106129342796 L2.0154406206149815,-3.03343766048068 L2.054308294247101,-2.872661863723078 L2.09822754446419,-2.712957132378266 L2.147149639426618,-2.5545006713237637 L2.201020296247635,-2.3974683003836685 L2.2597797412244613,-2.2420342592428337 L2.3233627761618862,-2.0883710141143146 L2.3916988507147625,-1.9366490663746387 L2.4647121406691213,-1.7870367633791995 L2.5423216320750655,-1.639700111667716 L2.6244412111380777,-1.494802592767007 L2.710979759768997,-1.3525049817954624 L2.801841256686668,-1.2129651690704875 L2.8969248839610455,-1.0763379849168615 L2.9961251388785723,-0.942775027870391 L3.0993319510056767,-0.8124244964674947 L3.2064308043205267,-0.6854310248073401 L3.3173028642774893,-0.5619355220690276 L3.4318251096633605,-0.4420750161618239 L3.5498704690990084,-0.32598250168200105 L3.6713079620349824,-0.21378679234494946 L3.7960028440846876,-0.10561237805628076 L3.923816756533799,-0.0015792867805561883 L4.054607879860065,0.0981970486391126 L4.18823109109315,0.19360591856282872 L4.3245381248399095,0.2845414593949003 L4.463377737796424,0.37090277104777636 L4.60459587656427,0.45259402889857503 L4.74803584858479,0.5295245901139887 L4.8935384960017405,0.6016090942255903 L5.040942372259364,0.6687675578439438 L5.190083921239953,0.7309254634064222 L5.340797658742156,0.7880138418602685 L5.4929163560986,0.839969349189142 L5.646271225729198,0.8867343366982605 L5.800692108424135,0.9282569149801332 L5.956007662148805,0.964491011489899 L6.112045552161196,0.9953964216664297 L6.2686326422307515,1.0209388535424266 L6.425595186746536,1.0410899657940358 L6.582759023501572,1.0558273991877596 L6.739949766939414,1.0651348013897821 L6.896993001648554,1.0690018451101495 L7.053714475889938,1.0674242395617148 L7.209940294942896,1.060403735221095 L7.365497114054912,1.047948121886384 L7.520212330781177,1.0300712200337627 L7.673914276500484,1.006792865482597 L7.826432406894984,0.9781388873860526 L7.97759749118241,0.9441410795716298 L8.127241799890882,0.9048371652634208 L8.275199290967844,0.8602707552252542 L8.421305794016686,0.8104912993711433 L8.56539919245665,0.7555540318967382 L8.707319603403826,0.6955199099926737 L8.846909555073706,0.6304555462078043 L8.984014161508433,0.5604331345373743 L9.118481294434845,0.4855303703181604 " />
			<path d="M9.118481294434881,0.48553037031813995 L9.215779975640588,0.4272688876645918 L9.311507230454342,0.36643819511690845 L9.405605396357316,0.3030749348096733 L9.498017792132927,0.2372172744015928 L9.588688752009483,0.16890488408471827 L9.677563659191158,0.09817891268861301 L9.764588978757113,0.025081962893831022 L9.849712289908927,-0.050341934430342405 L9.93288231754693,-0.12804734674843976 L10.0140489631564,-0.20798746722567474 L10.093163334985036,-0.2901141429226235 L10.170177777493528,-0.3743779038007613 L10.245045900061463,-0.4607279925213601 L10.317722604931307,-0.549112395019812 L10.3881641143736,-0.639477871836958 L10.456327997057036,-0.7317699901885466 L10.522173193607495,-0.8259331567535066 L10.585660041340686,-0.9219106511612876 L10.646750298153462,-1.0196446601580873 L10.70540716555943,-1.1190763124313965 L10.761595310854986,-1.220145714071875 L10.815280888402414,-1.3227919846512015 L10.866431560017233,-1.4269532938941727 L10.915016514447512,-1.5325668989229406 L10.961006485933403,-1.6395691820509843 L11.004373771835766,-1.7478956891040194 L11.045092249323176,-1.8574811682447878 L11.08313739110736,-1.9682596092783182 L11.118486280217503,-2.0801642834140055 L11.151117623804588,-2.193127783460535 L11.181011765967403,-2.3070820644294585 L11.20815069959252,-2.4219584845229427 L11.232518077201117,-2.5376878464810306 L11.254099220796077,-2.6542004392634784 L11.272881130703466,-2.7714260800410777 L11.28885249340306,-2.889294156471177 L11.302003688343174,-3.0077336692319037 L11.312326793735734,-3.126673274789509 L11.319815591328055,-3.246041328373046 L11.32446557014849,-3.365765927130493 L11.326273929223674,-3.48577495344035 L11.32523957926572,-3.6059961183525933 L11.321363143328366,-3.726357005132839 L11.314646956431666,-3.8467851128834756 L11.305095064155477,-3.967207900215491 L11.29271322020254,-4.087552828944694 L11.277508882932658,-4.207747407786004 L11.259491210870081,-4.327719236019493 L11.238671057186735,-4.447396047101868 L11.215060963164682,-4.566705752197137 L11.188675150641721,-4.6855764836002285 L11.159529513444692,-4.803936638027407 L11.127641607815612,-4.921714919747419 L11.093030641836467,-5.038840383527368 L11.055717463858976,-5.155242477367476 L11.015724549946325,-5.270851084998971 L10.973075990334422,-5.385596568119498 L10.927797474920844,-5.4994098083406335 L10.879916277790205,-5.612222248822222 L10.82946124078526,-5.723965935568446 L10.776462756133672,-5.834573558360775 L10.720952748140848,-5.943978491303124 L10.66296465395995,-6.052114832954803 L10.602533403450602,-6.158917446027078 L10.53969539813844,-6.264321996619442 L10.474488489288197,-6.36826499297195 L10.406951955103523,-6.470683823710274 L10.337126477067256,-6.571516795560468 L10.265054115436424,-6.670703170510674 L10.190778283906713,-6.7681832023974415 L10.114343723461685,-6.863898172894574 L10.035796475422478,-6.957790426882859 L9.955183853714242,-7.0498034071793505 L9.872554416365993,-7.139881688605303 L9.787957936261078,-7.227971011372232 L9.701445371155843,-7.314018313765973 L9.613068832984597,-7.397971764109082 L9.522881556469319,-7.479780791982291 L9.430937867053064,-7.559396118686249 L9.337293148176343,-7.636769786925155 L9.242003807916204,-7.711855189694452 L9.14512724500812,-7.784607098355135 L9.046721814271141,-7.854981689877796 L8.946846791457126,-7.922936573239978 L8.845562337545251,-7.988430814960939 L8.742929462503284,-8.051424963758453 L8.639009988537456,-8.111881074312791 L8.53386651285309,-8.169762730123551 L8.427562369948365,-8.225035065445608 L8.320161593464002,-8.277664786290932 L8.211728877611783,-8.327620190483634 L8.10232953820517,-8.374871186756186 L7.992029473315524,-8.419389312875257 L7.880895123577548,-8.461147752786315 L7.768993432167941,-8.500121352766607 L7.656391804481337,-8.53628663657682 L7.543158067527807,-8.569621819602295 L7.42936042907641,-8.60010682197526 L7.315067436569381,-8.627723280670194 L7.200347935831713,-8.652454560565022 L7.0852710296010155,-8.674285764461501 L6.9699060359026,-8.693203742058724 L6.854322446294894,-8.709197097874375 L6.73858988401033,-8.722256198108939 L6.6227780620169066,-8.732373176448748 L6.506956741025711,-8.739541938804347 L6.3911956874696685,-8.743758166981353 L6.275564631478859,-8.745019321281564 L6.160133224877686,-8.743324642032787 L6.044970999229228,-8.738675150046438 L5.930147323952023,-8.731073646002628 L5.815731364534523,-8.720524708763158 L5.701792040872394,-8.707034692613368 L5.588397985753746,-8.690611723434566 L5.475617503517304,-8.67126569380929 L5.363518528908433,-8.649008257062388 L5.252168586157787,-8.623852820241503 L5.141634748307236,-8.595814536041148 L5.031983596807577,-8.56491029367531 L4.92328118141235,-8.531158708704005 L4.815592980391945,-8.494580111819968 L4.708983861091936,-8.455196536602196 L4.6035180408594165,-8.413031706243759 L4.499259048360873,-8.368111019261814 L4.396269685314893,-8.320461534198511 L4.294611988662757,-8.270111953321923 L4.1943471931996985,-8.217092605336877 L4.095535694689383,-8.16143542711609 " />
			<path d="M4.0955356946893655,-8.161435427116079 L3.9707436292771323,-8.086066980911994 L3.8485756619130167,-8.006470026036487 L3.7291533967381363,-7.922723792090757 L3.6125957048633093,-7.834911638805428 L3.499018606046554,-7.743120973065553 L3.388535153208783,-7.647443161907111 L3.2812553199026384,-7.547973441571655 L3.177285890846486,-7.444810822709602 L3.07673035563253,-7.338057991826528 L2.97968880571484,-7.227821209070585 L2.886257834779841,-7.114210202462759 L2.796530442598419,-6.997338058675263 L2.7105959424553596,-6.877321110466777 L2.6285398722482607,-6.754278820886588 L2.550443909344412,-6.628333664362882 L2.4763857892803705,-6.499611004793554 L2.406439228385203,-6.3682389707608955 L2.340673850404359,-6.234348327994338 L2.279155117197253,-6.098072349208231 L2.2219442635775257,-5.95954668144421 L2.1690982363608358,-5.8189092110501806 L2.1206696376808685,-5.676299926430348 L2.076706672629964,-5.531860778702881 L2.037253101276508,-5.385735540403924 L2.002348195106814,-5.238069662378589 L1.9720266979348873,-5.089010129001398 L1.9463187913189604,-4.938705311870267 L1.925250064519223,-4.7873048221196655 L1.9088414890266687,-4.634959361499963 L1.8971093976883813,-4.481820572371195 L1.8900654684500742,-4.328040886760559 L1.8877167127320362,-4.173773374633925 " />
			<path d="M-28.315750690980522,17.567355436808008 L28.31575069098053,21.597205591626928 " />
			<path d="M28.315750690980522,21.597205591626924 L34.922759185542645,17.759253063227955 " />
			<path d="M4.716193744513919,0.5129588468608369 L4.719288920446211,0.33042966093911935 L4.715805759001994,0.14743988067246871 L4.705749115448978,-0.03575541981008072 L4.6891330079995,-0.21890087989961365 L4.665980598270178,-0.40174120846101435 L4.636324158996344,-0.5840215396897975 L4.600205029046251,-0.7654877883760621 L4.557673555797767,-0.9458870040803639 L4.508789024957887,-1.1249677237277824 L4.453619577922861,-1.3024803221287333 L4.392242116794171,-1.4781773599378967 L4.324742197182719,-1.651813928566234 L4.251213908950679,-1.8231479915653341 L4.17175974505724,-1.9919407220081953 L4.08649045869104,-2.157956835396185 L3.99552490888848,-2.3209649176281073 L3.898989894853068,-2.480737747574235 L3.797019979206775,-2.637052613805641 L3.6897573004197555,-2.789691625037354 L3.577351374679907,-2.9384420138525797 L3.459958887478435,-3.0830964332846458 L3.3377434752019415,-3.223453245843229 L3.2108754970354907,-3.3593168045820048 L3.0795317974945844,-3.4904977258159278 L2.9438954599170777,-3.616813153107982 L2.804155551258639,-3.738087012157442 L2.6605068585474854,-3.8541502562343406 L2.513149617365772,-3.9648411018180196 L2.362289232736101,-4.070005254111316 L2.2081359928022115,-4.169496122116014 L2.050904775702963,-4.263175022969793 L1.8908147500482262,-4.350911375259794 " />

       </g>
    </g>
    <g transform="translate(20,210.0)" stroke="rgb(0,0,255)">
        <line x1="30" y1="-30" x2="75" y2="-33" stroke-width="3" stroke="#000000" />
         <text x="80" y="-30" style="stroke:#000000">X </text>

        <line x1="30" y1="-30" x2="30" y2="-75" stroke-width="3" stroke="#000000" />
         <text x="25" y="-85" style="stroke:#000000">Y </text>

        <line x1="30" y1="-30" x2="58" y2="-15" stroke-width="3" stroke="#000000" />
         <text x="65" y="-5" style="stroke:#000000">Z </text>
        <!--
            <line x1="0" y1="0" x2="3.8271518970117784" y2="0" stroke-width="3" />
            <text x="0" y="20" style="stroke:#000000">1  mm </text>
        -->
    </g>
</svg>
