<?xml version="1.0" encoding="UTF-8" standalone="no"?>
<svg
   xmlns:svg="http://www.w3.org/2000/svg"
   xmlns="http://www.w3.org/2000/svg"
   width="800.0"
   height="240.0"

>
    <g transform="scale(2.8697675827250704, -2.8697675827250704)   translate(98.00780561693527,-36.411653945075635)" stroke-width="0.34846027462977375"  fill="none">
       <!-- hidden lines -->
       <g  stroke="rgb(160,160,160)" fill="none" stroke-dasharray="0.34846027462977375,0.34846027462977375" >
			<path d="M28.315750690980522,2.014925077409466 L28.312227338196585,2.478035957897549 L28.3016581566723,2.940530150169504 L28.284045776672038,3.402292557139069 L28.259394581242457,3.8632082638333203 L28.227710705121705,4.323162565990576 L28.189002033212734,4.782040998605928 L28.143278198621047,5.239729364417172 L28.0905505802574,5.696113762324161 L28.030832300005997,6.151080615734364 L27.964138219458984,6.604516700827786 L27.890484936217945,7.056309174734037 L27.809890779763418,7.506345603614571 L27.722375806893382,7.954513990643182 L27.627961796731856,8.400702803877712 L27.526672245308987,8.844801004016082 L27.418532359713694,9.286698072029722 L27.30356905182066,9.72628403666752 L27.18181093159296,10.163449501823465 L27.053288299962155,10.598085673761123 L26.918033141287534,11.030084388188266 L26.776079115396467,11.459338137174775 L26.62746154920773,11.885740095907266 L26.47221742793998,12.309184149273719 L26.310385385907594,12.72956491827144 L26.142005696906022,13.146777786231842 L25.967120264189223,13.560718924855568 L25.785772610041523,13.97128532005133 L25.59800786494659,14.378374797572206 L25.403872756356193,14.781886048442875 L25.20341559706153,15.181718654171549 L24.996686273170006,15.57777311174029 L24.783736231690526,15.969950858367504 L24.564618467730266,16.358154296036407 L24.339387511306278,16.742286815783466 L24.108099413774976,17.122252821740684 L23.87081173388318,17.497957754925707 L23.62758352344389,17.869308116773958 L23.37847531264059,18.236211492406845 L23.12354909496359,18.598576573630268 L22.862868311782233,18.956313181657762 L22.59649783655673,19.3093322895525 L22.324503958693697,19.657546044382734 L22.04695436704922,20.000867789084985 L21.763918133083706,20.339212084029693 L21.47546569367264,20.67249472828384 L21.181668833577564,21.00063278056535 L20.882600667581567,21.32354457988402 L20.578335622293828,21.641149765863787 L20.268949417627702,21.95336929874134 L19.954519047956914,22.26012547903611 L19.635122762954616,22.561341966886676 L19.310840048120046,22.856943801048843 L18.98175160499762,23.146857417550624 L18.647939331093422,23.431010667999495 L18.30948629949405,23.709332837537353 L17.96647673819289,23.981754662438753 L17.618996009129027,24.248208347347983 L17.267130586943924,24.508627582150723 L16.91096803746115,24.762947558476128 L16.550596995894647,25.011104985825106 L16.186107144790814,25.253038107320933 L15.817589191709951,25.488686715078142 L15.445134846652625,25.71799216518599 L15.068836799236658,25.94089739230259 " />
			<path d="M-15.06883679923655,-25.940897392302652 L-14.868668945018783,-26.055970016505295 L-14.667469879534563,-26.169235538139528 L-14.46525355687379,-26.280686101715236 L-14.262034001677868,-26.390313977618057 L-14.05782530816705,-26.498111562645512 L-13.852641639162918,-26.604071380534286 L-13.646497225106136,-26.70818608247875 L-13.439406363069496,-26.81044844764064 L-13.231383415766365,-26.910851383649856 L-13.02244281055454,-27.009387927096338 L-12.81259903843567,-27.106051244013038 L-12.601866653050216,-27.200834630349856 L-12.390260269668103,-27.29373151243862 L-12.177794564175072,-27.384735447448982 L-11.964484272054849,-27.473840123835277 L-11.750344187367162,-27.561039361774245 L-11.535389161721712,-27.646327113593635 L-11.319634103248141,-27.729697464191638 L-11.103093975562084,-27.811144631447128 L-10.88578379672737,-27.890662966620674 L-10.66771863821446,-27.968246954746323 L-10.448913623855155,-28.043891215014067 L-10.2293839287937,-28.11759050114303 L-10.00914477843431,-28.18933970174534 L-9.788211447385232,-28.259133840680615 L-9.566599258399352,-28.32696807740107 L-9.344323581311517,-28.39283770728726 L-9.12139983197256,-28.456738161974336 L-8.897843471180128,-28.51866500966891 L-8.673670003606412,-28.578613955456397 L-8.448894976722828,-28.636580841598906 L-8.223533979721726,-28.692561647823588 L-7.997602642435204,-28.74655249160146 L-7.771116634251103,-28.798549628416684 L-7.5440916630262755,-28.848549452026255 L-7.316543473997164,-28.89654849471013 L-7.088487848687795,-28.942543427511705 L-6.85994060381525,-28.986531060468714 L-6.630917590192728,-29.02850834283446 L-6.401434691630187,-29.068472363289395 L-6.1715078238327505,-29.10642035014304 L-5.941152933296861,-29.142349671526212 L-5.710385996204338,-29.176257835573566 L-5.479223017314337,-29.208142490596384 L-5.247680028853361,-29.238001425245727 L-5.015773089403321,-29.265832568665754 L-4.783518282787844,-29.291633990637376 L-4.5509317169567485,-29.31540390171212 L-4.3180295228688985,-29.337140653336213 L-4.084827853373443,-29.35684273796496 L-3.8513428820895395,-29.37450878916726 L-3.617590802284652,-29.390137581720385 L-3.3835878257514462,-29.403728031694968 L-3.149350181683446,-29.415279196530168 L-2.914894115549467,-29.424790275099042 L-2.680235887966905,-29.432260607764103 L-2.4453917735739856,-29.437689676423076 L-2.2103780599010534,-29.441077104544828 L-1.9752110462409542,-29.442422657195483 L-1.7399070425185943,-29.441726241054713 L-1.504482368159776,-29.438987904422213 L-1.2689533509593836,-29.43420783721435 L-1.033336325948945,-29.427386370950984 L-0.7976476342637531,-29.418523978732505 L-0.5619036220095044,-29.407621275206974 L-0.32612063912864697,-29.39467901652754 L-0.09031503826641056,-29.379698100299958 L0.14549682636330719,-29.362679565520377 L0.3812986001121881,-29.34362459250323 L0.6170739290317527,-29.322534502799435 L0.852806461007608,-29.29941075910468 L1.088479846893528,-29.274254965158025 L1.3240777416453327,-29.247068865630634 L1.5595838054545073,-29.217854346004824 L1.794981704881444,-29.18661343244324 L2.030255113988232,-29.15334829164837 L2.265387715470952,-29.118061230712282 L2.5003632017913198,-29.08075469695657 L2.7351652763077543,-29.041431277762676 L2.969777654405569,-29.000093700392394 L3.2041840646264004,-28.956744831798762 L3.438368249796737,-28.9113876784272 L3.672313968155376,-28.86402538600701 L3.906004994479922,-28.81466123933321 L4.139425121212041,-28.763298662038682 L4.37255815958155,-28.709941216356796 L4.605387940729174,-28.654592602874278 L4.837898316827936,-28.59725666027461 L5.07007316220309,-28.53793736507178 L5.301896374450487,-28.476638831334483 L5.5333518755533975,-28.41336531040081 L5.7644236129975415,-28.348121190583388 L6.225351721042883,-28.211739390584896 L6.68455283078113,-28.067531265528668 L7.141899553500023,-27.915536820734726 L7.597265014919802,-27.755798221555427 L8.05052289038987,-27.588359781678207 L8.501547439932997,-27.413267950832356 L8.95021354312734,-27.23057130190324 L9.396396733816541,-27.040320517457484 L9.839973234638373,-26.84256837568296 L10.28081999136228,-26.637369735747367 L10.718814707026313,-26.42478152257955 L11.153835875863988,-26.204862711077755 L11.585762817011675,-25.977674309749155 L12.014475707987115,-25.743279343785275 L12.43985561792983,-25.501742837577904 L12.861784540594186,-25.253131796680478 L13.280145427085953,-24.997515189219772 L13.694822218333279,-24.734963926763218 L14.105699877283064,-24.465550844647055 L14.512664420813833,-24.18935068177079 L14.915602951356233,-23.90644005986362 L15.31440368821235,-23.616897462228494 L15.708955998565235,-23.320803211969768 L16.099150428169953,-23.018239449710475 L16.484878731717718,-22.709290110805373 L16.866033902864622,-22.394040902056133 L17.242510203916662,-22.07257927793507 L17.61420319516285,-21.74499441632411 L17.981009763848217,-21.41137719377558 L18.3428281527787,-21.0718201603018 L18.69955798855001,-20.726417513700472 L19.05110030939257,-20.375265073422874 L19.397357592624918,-20.01846025399225 L19.7382337817078,-19.656102037979654 L20.073634312891585,-19.288290948544848 L20.403466141449574,-18.91512902154978 L20.727637767489856,-18.536719777252433 L21.046059261338662,-18.153168191588872 L21.35864228848809,-17.76458066705149 L21.665300134101294,-17.371065003171484 L21.96594772706842,-16.972730366613774 L22.260501663606455,-16.569687260892668 L22.548880230396612,-16.16204749571666 L22.831003427252725,-15.749924155970907 L23.10679298931439,-15.333431570345883 L23.376172408758748,-14.912685279621051 L23.639066956024767,-14.487802004612261 L23.89540370054427,-14.05889961379178 L24.145111530973896,-13.626097090589942 L24.38812117492234,-13.189514500387528 L24.62436521816748,-12.749272957207962 L24.85377812335801,-12.305494590118625 L25.076296248194403,-11.85830250935056 L25.291857863084164,-11.407820772145984 L25.500403168266466,-10.95417434834314 L25.701874310401422,-10.497489085707919 L25.896215398619415,-10.03789167502194 L26.08337252002598,-9.57550961493681 L26.263293754657973,-9.110471176604221 L26.43592918988693,-8.642905368091796 L26.601230934265462,-8.172941898594438 L26.759153130813033,-7.700711142451223 L26.909651969737315,-7.226344102977793 L27.052685700587613,-6.749972376124199 L27.188214643837036,-6.271728113968371 L27.316201201890138,-5.791743988055332 L27.436609869512996,-5.310153152592265 L27.54940724368286,-4.827089207509717 L27.654562032854617,-4.342686161399131 L27.75204506564149,-3.857078394337014 L27.841829298907584,-3.370400620606064 L27.923889825270024,-2.882787851323572 L27.998203880008596,-2.3943753569874584 L28.064750847381024,-1.9052986299503918 L28.123512266342033,-1.4156933468323383 L28.174471835664683,-0.9256953308819911 L28.21761541846261,-0.4354405142975821 L28.252931046111744,0.054935099482667046 L28.280408921570576,0.545295473509718 L28.300041422098023,1.035504575062248 L28.311823101368034,1.5254264133839992 L28.315750690980522,2.0149250774093606 " />
			<path d="M-2.3596458909150435,-0.16791042311745719 L-2.358471513056025,-0.24504417918079344 L-2.354949548436871,-0.3219340219861113 L-2.3490835027677273,-0.3985034165504955 L-2.34087921502145,-0.474676146860347 L-2.330344851621582,-0.5503763917356481 L-2.3174908983136184,-0.6255288003012137 L-2.302330149727655,-0.7000585669898087 L-2.2848776966428077,-0.7738915060024782 L-2.265150910966079,-0.846954125151959 L-2.2431694284406274,-0.9191736990156913 L-2.2189551291006437,-0.9904783413256069 L-2.1925321154922988,-1.0607970765226216 L-2.163926688682435,-1.1300599104046323 L-2.133167322078882,-1.1981978997976854 L-2.10028463308846,-1.2651432211809637 L-2.065311352640877,-1.3308292381972922 L-2.0282822926088566,-1.3951905679819552 L-1.9892343111569315,-1.4581631462438085 L-1.9482062760533825,-1.5196842910339037 L-1.9052390259818526,-1.5796927651381463 L-1.8603753298911418,-1.6381288370318947 L-1.8136598444236427,-1.6949343403358068 L-1.7651390694647986,-1.7500527317137773 L-1.7148613018578192,-1.8034291471553154 L-1.6628765873297418,-1.8550104565863437 L-1.609236670676669,-1.9047453167540713 L-1.5539949442577838,-1.9525842223332925 L-1.4972063948494072,-1.9984795552032302 L-1.438927548911994,-2.0423856318458933 L-1.3792164163245542,-2.0842587488187587 L-1.3181324326424964,-2.124057226256512 L-1.2557363999363973,-2.161741449358544 " />
			<path d="M-1.2557363999363786,-2.1617414493585545 L-1.156198252949683,-2.2160797124614775 L-1.053874723100625,-2.2650792454314224 L-0.9490123167350942,-2.3086220041016134 L-0.8418636565748869,-2.346603090152518 L-0.7326868731274431,-2.3789310038210894 L-0.6217449828268449,-2.4055278643317095 L-0.5093052544041878,-2.4263295975177983 L-0.39563856501379974,-2.441286090182094 L-0.28101874766644785,-2.4503613108237343 L-0.16572193154163248,-2.4535333964412973 L-0.05002587676820602,-2.4507947052026897 L0.06579069472410395,-2.4421518348549847 L0.18144877067023996,-2.4276256068298774 L0.29666972063479513,-2.407251016083027 L0.411175967257143,-2.3810771467881464 L0.5246916549596072,-2.349167054088926 L0.6369433145077127,-2.3115976121936734 L0.7476605218215236,-2.2684593291786084 L0.8565765494509389,-2.219856128945982 L0.9634290091454828,-2.1659051008622914 L1.0679604839705805,-2.1067362176797424 L1.169919148447502,-2.042492022420504 L1.2690593752229986,-1.973327284978083 L1.3651423268071106,-1.8994086292630932 L1.457936530953598,-1.8209141317916613 L1.5472184382968597,-1.7380328926835025 L1.6327729609019357,-1.6509645801031674 L1.7143939904301777,-1.5599189492419452 L1.7918848946722952,-1.4651153369992362 L1.865058991252567,-1.366782133580749 L1.933739997363037,-1.2651562322864902 L1.9977624544442398,-1.1604824588140545 L2.056972126789362,-1.0530129814520777 L2.111226373111569,-0.9430067035847391 L2.1603944901793604,-0.8307286399708322 L2.204358027692101,-0.7164492783000007 L2.243011073637172,-0.6004439275641996 L2.2762605094412844,-0.48299205481421914 L2.3040262343012796,-0.36437661189908377 L2.326241358153979,-0.24488335381026238 L2.342852362820208,-0.12480015027286231 L2.353819230934772,-0.00441629224225389 L2.359115542351799,0.11597820502318767 L2.3587285377931835,0.2360933006342374 L2.352659149586805,0.35563962680472827 L2.3409219994204684,0.47432918596389545 L2.323545363116977,0.5918760445677456 L2.300571102515199,0.7079970219380126 L2.272054564621233,0.8224123724692156 L2.238064448272618,0.9348464595603254 L2.1986826386368206,1.0450284196474748 L2.154004009942694,1.152692814738014 L2.104136196920146,1.2575802718738829 L2.049199335498654,1.3594381079837854 L1.9893257733892824,1.4580209386188399 L1.9246597512474568,1.553091269105211 L1.8553570551845917,1.6444200666895785 L1.7815846414657028,1.7317873122991037 L1.703520234297139,1.8149825305866467 L1.6213518976734034,1.8938052969843127 L1.5352775823145186,1.9680657205437904 L1.4455046487854033,2.0375849014002805 L1.3522493679461103,2.1021953617579388 L1.2557363999363886,2.161741449358549 " />
			<path d="M1.2557363999363798,2.161741449358554 L1.1885028334731567,2.1991928314681712 L1.1199505302557926,2.2342040373033862 L1.050155554420853,2.266736219195821 L0.9791953489472641,2.2967532801478536 L0.907148649727281,2.3242219138850566 L0.8340953982028595,2.3491116418121116 L0.7601166526643804,2.3713948468311945 L0.6852944983101446,2.391046803985299 L0.6097119561664316,2.4080457078925113 L0.5334528909691836,2.4223726969407826 L0.4566019181095299,2.4340118742163654 L0.37924430974639656,2.4429503251426765 L0.3014659001903876,2.449178131810032 L0.22335299066390885,2.452688383980342 L0.1449922535432167,2.4534771867545593 L0.06647063618864682,2.4515436648943756 L-0.01212473553027465,2.4468899637933643 L-0.09070665390779245,2.4395212470965024 L-0.16918792616568448,2.4294456909706983 L-0.24748147120046313,2.4166744750326994 L-0.3255004162066603,2.401221769944434 L-0.40315819306899453,2.3831047216895507 L-0.4803686344164613,2.3623434325486157 L-0.5570460692317599,2.338960938794056 L-0.6331054179099832,2.3129831851296188 L-0.7084622866610837,2.284438995902696 L-0.7830330611513787,2.2533600431214564 L-0.8567349992801904,2.21978081131228 L-0.9294863229886658,2.1837385592564793 L-1.0012063089989256,2.145273278648773 L-1.0718153783828483,2.1044276497233736 L-1.141235184861106,2.061246993896935 L-1.2093887017344855,2.0157792234808993 L-1.2762003073510286,1.9680747885190417 L-1.3415958690141614,1.9181866208092073 L-1.405502825238717,1.8661700751713453 L-1.4678502662635695,1.8120828680270105 L-1.5285690127315563,1.755985013358485 L-1.5875916924493803,1.6979387561185733 L-1.6448528151423163,1.6380085031649716 L-1.7002888451207976,1.5762607517958158 L-1.7538382717782224,1.5127640159657383 L-1.8054416778417748,1.44758875026429 L-1.8550418053005382,1.380807271741055 L-1.902583618937727,1.3124936796642417 L-1.948014367396562,1.2427237733017542 L-1.991283641712022,1.171574967815982 L-2.0323434312435285,1.0991262083656277 L-2.0711481769465006,1.025457882509886 L-2.10765482192368,0.9506517310121663 L-2.141822859200118,0.8747907571423282 L-2.173614376668831,0.7979591345780689 L-2.2029940991572436,0.7202421140076514 L-2.2299294275677526,0.6417259285376041 L-2.2543904750489676,0.5624976980103507 L-2.2763501001575115,0.4826453323379447 L-2.2957839369735713,0.40225743395914343 L-2.3126704221367906,0.3214231995280833 L-2.3269908187725017,0.24023232094363048 L-2.3387292372817523,0.1587748858291987 L-2.3478726529720566,0.0771412775734999 L-2.354410920509312,-0.004577924956888342 L-2.3583367851748354,-0.08629204792185344 L-2.359645890915044,-0.16791042311743562 " />
			<path d="M4.24736260364708,-4.005862951516424 L-2.3596458909150435,-0.16791042311745505 " />
			<path d="M7.862744894498502,-1.676211079040415 L1.255736399936379,2.1617414493585545 " />
			<path d="M5.351272094625744,-5.9996939777575236 L-1.2557363999363786,-2.161741449358554 " />

       </g>

       <!-- solid lines -->
       <g  stroke="rgb(0,0,0)" fill="none">
			<path d="M15.068836799236552,25.94089739230265 L14.773514722193502,26.109834949516983 L14.475967808174552,26.274840461627445 L14.176240866650483,26.435889079410842 L13.874379035396206,26.59295654953772 L13.570427773693178,26.746019218224824 L13.264432855483387,26.895054034797248 L12.956440362475968,27.040038555159825 L12.646496677207507,27.18095094517707 L12.334648476056925,27.317769983961362 L12.020942722216244,27.45047506706873 L11.705426658618109,27.579046209601778 L11.388147800821129,27.70346404921936 L11.069153929854243,27.82370984905248 L10.748493085021073,27.939765500525983 L10.426213556665362,28.051613526085642 L10.102363878898645,28.159237081830213 L9.77699282229118,28.262619960048077 L9.450149386527283,28.361746591658044 L9.121882793026158,28.45660204855401 L8.792242477529324,28.547172045853074 L8.461278082655786,28.63344294404678 L8.129039450426024,28.715401751055197 L7.795576614755987,28.793036124183452 L7.460939793922149,28.866334371980514 L7.1251793829988435,28.93528545599988 L6.788345946268925,28.999878992461916 L6.450490209608999,29.06010525381763 L6.111663052850274,29.11595517021358 L5.771915502116251,29.167420330857798 L5.431298722138383,29.214492985286395 L5.089864008550837,29.25716604453076 L4.747662780165608,29.29543308218513 L4.4047465712289595,29.32928833537439 L4.061167023660604,29.35872670562195 L3.716975879276643,29.383743759617527 L3.372224971997376,29.40433572988481 L3.026966220041346,29.420499515348816 L2.6812516181066313,29.43223268180292 L2.3351332295406486,29.439533462275396 L1.988663178499594,29.44240075729557 L1.6418936420987342,29.440834135059355 L1.2948768425547343,29.4348338314943 L0.9476650393211756,29.424400750224056 L0.6003105212184842,29.409536462432275 L0.25286559855941226,29.390243206626028 L-0.09461740472869114,29.366523888298673 L-0.442086158983674,29.338382079492305 L-0.7894883366892337,29.30582201825982 L-1.1367716203552534,29.26884860802667 L-1.4838837103966205,29.22746741685243 L-1.8307723330093568,29.181684676592294 L-2.177385248042855,29.131507281958534 L-2.523670256867047,29.076942789482214 L-2.869575210233344,29.017999416375197 L-3.2150480161281183,28.954686039292664 L-3.5600366476175282,28.887012192996323 L-3.904489150682654,28.8149880689185 L-4.248353652043538,28.738624513627347 L-4.59157836697108,28.657933027193415 L-4.934111607085712,28.57292576145775 L-5.275901788141403,28.483615518201894 L-5.616897437794096,28.390015747219966 L-5.95704720335323,28.292140544293186 L-6.296299859515278,28.190004649067117 L-6.634604316078098,28.08362344283188 L-6.971909625634904,27.97301294620583 L-7.308164991246803,27.858189816722916 L-7.643319774092553,27.73917134632408 L-7.9773235010946575,27.61597545875318 L-8.310125872520416,27.488620706857727 L-8.641676769556822,27.357126269794914 L-8.97192626185829,27.2215119501433 L-9.300824615066059,27.08179817092058 L-9.628322298297945,26.938005972507998 L-9.954369991607464,26.790157009481728 L-10.278918593411273,26.63827354735178 L-10.601919227883746,26.482378459208874 L-10.923323252317449,26.322495222279844 L-11.243082264448491,26.158647914392084 L-11.56114810974579,25.990861210347497 L-11.877472888663009,25.819160378206533 L-12.192008963851993,25.643571275482934 L-12.504708967336759,25.464120345249714 L-12.815525807646956,25.280834612156912 L-13.12441267690973,25.093741678361734 L-13.431323057898764,24.90286971937182 L-13.736210731039572,24.70824747980212 L-14.039029781370013,24.509904269046057 L-14.339734605454991,24.307869956861587 L-14.6382799182541,24.10217496887297 L-14.934620759941344,23.892850281988807 L-15.228712502675972,23.679927419737005 L-15.520510857323302,23.463438447517404 L-15.80997188012447,23.243415967772908 L-16.097051979314138,23.019893115079665 L-16.381707921685305,22.792903551157128 L-16.663896839100133,22.562481459798676 L-16.943576234945635,22.32866154172369 L-17.22070399053353,22.091479009351794 L-17.495238371443154,21.85096958149995 L-17.767138033806585,21.60716947800332 L-18.036362030534818,21.360115414260697 L-18.302869817484204,21.109844595705365 L-18.566621259562297,20.856394712202054 L-18.827576636772108,20.59980393237093 L-19.085696650193707,20.340110897839605 L-19.340942427902498,20.077354717423873 L-19.593275530823203,19.811574961238033 L-19.842657958518718,19.54281165473571 L-20.08905215491271,19.271105272682295 L-20.332421013945496,18.99649673305953 L-20.572727885162124,18.719027390903353 L-20.809936579231685,18.4387390320761 L-21.044011373397357,18.155673866973647 L-21.27491701685617,17.869874524168626 L-21.502618736067543,17.58138404399083 L-21.727082239990093,17.290245872045443 L-21.94827372524581,16.996503852670227 L-22.166159881210593,16.70020222233285 L-22.3807078950308,16.40138560296899 L-22.591885456564725,16.100098995262357 L-22.799660763248394,15.796387771867831 L-23.004002524884864,15.490297670578546 L-23.204879968356437,15.181874787437884 L-23.402262842259034,14.87116556979756 L-23.596121421457894,14.558216809322849 L-23.786426511564034,14.24307563494598 L-23.97314945333087,13.925789505768664 L-24.156262126970212,13.606406203914856 L-24.33573695638696,13.284973827335016 L-24.51154691333195,12.96154078256275 L-24.683665521472335,12.636155777424946 L-24.852066860378848,12.308867813706497 L-25.01672556942928,11.979726179770854 L-25.177616851627704,11.648780443137433 L-25.33471647733882,11.316080443016883 L-25.48800078793686,10.98167628280543 L-25.63744669936848,10.64561832253954 L-25.783031705629114,10.307957171311939 L-25.924733882152317,9.968743679650009 L-26.06253188911154,9.62802893185782 L-26.196404974633793,9.285864238323168 L-26.326332977924807,8.94230112779034 L-26.452296332305213,8.59739133960001 L-26.57427606815717,8.25118681589763 L-26.692253815781125,7.90373969381105 L-26.806211808162256,7.555102297598794 L-26.916132883646075,7.205327130770374 L-27.022000488522924,6.854466868179357 L-27.123798679520938,6.502574348090682 L-27.221512126206992,6.14970256422353 L-27.315126113295417,5.795904657770615 L-27.404626542864115,5.441233909395254 L-27.489999936477602,5.085743731207543 L-27.57123343721682,4.729487658720749 L-27.64831481161536,4.372519342788998 L-27.721232451501763,4.0148925415276135 L-27.789975375747677,3.6566611122173844 L-27.854533231921568,3.2978790031939123 L-27.914896297847754,2.9386002457231366 L-27.971055483070547,2.5788789458643806 L-28.023002330223214,2.2187692763222095 L-28.07072901630166,1.8583254682882995 L-28.114228353842496,1.497601803274353 L-28.15349379200551,1.1366526049374426 L-28.188519417560133,0.7755322308991398 L-28.219299955775995,0.4142950645594936 L-28.24583077121726,0.05299550690704972 L-28.268107868440712,-0.30831203167379867 L-28.28612789259745,-0.669573139596769 L-28.299888129938118,-1.0307334122677998 L-28.30938650822159,-1.391738460278247 L-28.314621597027024,-1.7525339175957957 L-28.315592607969315,-2.113065449751707 L-28.312299394817774,-2.4732787620233507 L-28.3047424535182,-2.8331196076108442 L-28.29292292211816,-3.1925337958064626 L-28.276842580595584,-3.55146720015552 L-28.256503850590775,-3.909865766607556 L-28.231909795041666,-4.267675521656735 L-28.20306411772254,-4.624842580470094 L-28.169971162686313,-4.981313155002373 L-28.132635913610276,-5.33703356209621 L-28.09106399304562,-5.6919502315667305 L-28.04526166157067,-6.04600971426901 L-27.995235816848062,-6.399158690147319 L-27.940993992586005,-6.751343976264849 L-27.882544357403724,-7.1025125348129166 L-27.81989571360127,-7.45261148109837 L-27.753057495833968,-7.801588091507626 L-27.68203976969157,-8.149389811446769 L-27.606853230182388,-8.495964263256147 L-27.527509200122736,-8.841259254098093 L-27.444019628431683,-9.18522278381705 L-27.35639708833162,-9.527803052770697 L-27.26465477545479,-9.868948469630611 L-27.168806505856065,-10.208607659151815 L-27.068866713932277,-10.546729469909794 L-26.964850450248484,-10.883262982003515 L-26.856773379271413,-11.218157514723917 L-26.744651777010393,-11.551362634186221 L-26.62850252856631,-11.882828160925095 L-26.50834312558876,-12.212504177451413 L-26.38419166364185,-12.5403410357697 L-26.25606683947908,-12.866289364855003 L-26.12398794822768,-13.190300078087908 L-25.987974880482852,-13.512324380646795 L-25.84804811931232,-13.83231377685617 L-25.704228737171615,-14.150220077489994 L-25.556538392730666,-14.465995407028773 L-25.404999327612106,-14.77959221086937 L-25.249634363041753,-15.090963262486595 L-25.090466896411776,-15.400061670545416 L-24.927520897757184,-15.706840885962556 L-24.76082090614601,-16.01125470891657 L-24.590392025983846,-16.31325729580542 L-24.416259923233138,-16.612803166150403 L-24.23845082154804,-16.909847209445278 L-24.056991498325242,-17.204344691949714 L-23.87190928067138,-17.49625126342608 L-23.68323204128764,-17.785522963818433 L-23.490988194272237,-18.07211622987276 L-23.295206690841418,-18.355987901697333 L-23.095917014969483,-18.63709522926252 L-22.89314917894855,-18.915395878838805 L-22.686933718868875,-19.19084793937205 L-22.477301690020237,-19.46340992879511 L-22.26428466221511,-19.733040800274924 L-22.047914715034334,-19.999699948394042 L-21.828224432996056,-20.263347215265636 L-21.60524690064869,-20.523942896581055 L-21.37901569758845,-20.781447747589226 L-21.14956489340235,-21.035822989006782 L-20.9169290425375,-21.287030312858054 L-20.681143179097358,-21.535031888244056 L-20.442242811565684,-21.779790367039745 L-20.200263917459047,-22.021268889518538 L-19.955242937908853,-22.259431089903167 L-19.707216772173375,-22.494241101842256 L-19.456222772080835,-22.72566356381175 L-19.20229873640443,-22.953663624440093 L-18.945482905169946,-23.178206947756788 L-18.685813953896886,-23.399259718363314 L-18.4233309877742,-23.6167886465255 L-18.15807353577111,-23.830760973186873 L-17.890081544684154,-24.041144474902126 L-17.61939537312146,-24.247907468689743 L-17.346055785424827,-24.451018816803373 L-17.070103945530715,-24.650447931421105 L-16.791581410771162,-24.846164779251854 L-16.510530125615436,-25.038139886058225 L-16.22699241535332,-25.22634434109526 L-15.941010979721016,-25.41074980146431 L-15.652628886470795,-25.59132849638136 L-15.361889564885164,-25.768053231359158 L-15.068836799236768,-25.940897392302524 " />
			<path d="M34.922759185542645,-1.8230274509895033 L34.91923583275871,-1.35991657050142 L34.90866665123443,-0.8974223782294652 L34.89105427123416,-0.43565997125989986 L34.866403075804584,0.025255735434351223 L34.83471919968383,0.4852100375916071 L34.796010527774854,0.944088470206959 L34.75028669318317,1.4017768360182026 L34.69755907481952,1.8581612339251916 L34.63784079456812,2.313128087335395 L34.57114671402111,2.7665641724288172 L34.49749343078007,3.2183566463350677 L34.416899274325544,3.668393075215602 L34.329384301455505,4.1165614622442135 L34.234970291293976,4.562750275478743 L34.13368073987111,5.006848475617113 L34.02554085427582,5.4487455436307535 L33.91057754638278,5.888331508268552 L33.78881942615509,6.325496973424496 L33.66029679452428,6.760133145362154 L33.52504163584966,7.192131859789297 L33.383087609958594,7.621385608775807 L33.23447004376985,8.047787567508298 L33.079225922502104,8.47123162087475 L32.91739388046972,8.89161238987247 L32.74901419146815,9.308825257832874 L32.57412875875134,9.7227663964566 L32.39278110460364,10.13333279165236 L32.20501635950872,10.540422269173238 L32.01088125091832,10.943933520043906 L31.810424091623652,11.34376612577258 L31.60369476773213,11.739820583341322 L31.39074472625265,12.131998329968535 L31.17162696229239,12.520201767637438 L30.9463960058684,12.904334287384497 L30.7151079083371,13.284300293341715 L30.477820228445303,13.660005226526739 L30.234592018006012,14.03135558837499 L29.985483807202712,14.398258964007876 L29.730557589525713,14.7606240452313 L29.469876806344356,15.118360653258794 L29.203506331118852,15.471379761153532 L28.93151245325582,15.819593515983765 L28.653962861611344,16.162915260686017 L28.37092662764583,16.501259555630725 L28.082474188234762,16.834542199884872 L27.788677328139688,17.162680252166382 L27.48960916214369,17.485592051485053 L27.18534411685595,17.80319723746482 L26.875957912189826,18.11541677034237 L26.561527542519038,18.42217295063714 L26.24213125751674,18.723389438487708 L25.91784854268217,19.018991272649874 L25.588760099559742,19.308904889151655 L25.254947825655545,19.593058139600526 L24.916494794056174,19.871380309138384 L24.57348523275501,20.143802134039785 L24.22600450369115,20.410255818949015 L23.874139081506048,20.670675053751754 L23.517976532023273,20.92499503007716 L23.15760549045677,21.173152457426138 L22.793115639352937,21.415085578921964 L22.424597686272072,21.650734186679173 L22.052143341214748,21.88003963678702 L21.67584529379878,22.10294486390362 " />
			<path d="M21.675845293798673,22.10294486390368 L21.380523216755627,22.271882421118015 L21.082976302736675,22.436887933228476 L20.783249361212604,22.597936551011873 L20.48138752995833,22.755004021138753 L20.1774362682553,22.908066689825855 L19.871441350045508,23.05710150639828 L19.56344885703809,23.202086026760856 L19.253505171769632,23.3429984167781 L18.94165697061905,23.479817455562394 L18.627951216778367,23.61252253866976 L18.312435153180232,23.74109368120281 L17.995156295383254,23.86551152082039 L17.67616242441637,23.985757320653512 L17.355501579583198,24.101812972127014 L17.033222051227483,24.213660997686674 L16.709372373460766,24.321284553431244 L16.384001316853304,24.42466743164911 L16.057157881089406,24.523794063259075 L15.728891287588281,24.618649520155042 L15.399250972091448,24.709219517454105 L15.06828657721791,24.795490415647812 L14.736047944988147,24.877449222656228 L14.40258510931811,24.955083595784483 L14.067948288484272,25.028381843581545 L13.732187877560968,25.097332927600913 L13.39535444083105,25.161926464062947 L13.057498704171122,25.22215272541866 L12.718671547412397,25.278002641814613 L12.378923996678374,25.32946780245883 L12.038307216700506,25.376540456887426 L11.69687250311296,25.41921351613179 L11.354671274727732,25.457480553786162 L11.011755065791082,25.49133580697542 L10.668175518222728,25.520774177222982 L10.323984373838766,25.54579123121856 L9.9792334665595,25.56638320148584 L9.633974714603468,25.582546986949847 L9.288260112668755,25.59428015340395 L8.942141724102772,25.601580933876427 L8.595671673061718,25.6044482288966 L8.248902136660858,25.602881606660386 L7.901885337116857,25.59688130309533 L7.554673533883299,25.586448221825087 L7.207319015780607,25.571583934033306 L6.859874093121536,25.55229067822706 L6.512391089833432,25.528571359899704 L6.164922335578449,25.500429551093337 L5.81752015787289,25.467869489860853 L5.47023687420687,25.4308960796277 L5.123124784165503,25.389514888453462 L4.776236161552767,25.343732148193325 L4.429623246519268,25.293554753559565 L4.083338237695076,25.238990261083245 L3.7374332843287794,25.18004688797623 L3.391960478434005,25.116733510893695 L3.046971846944595,25.049059664597355 L2.7025193438794695,24.97703554051953 L2.358654842518585,24.900671985228378 L2.015430127591043,24.819980498794447 L1.6728968874764112,24.73497323305878 L1.3311067064207203,24.645662989802926 L0.9901110567680274,24.552063218820997 L0.6499612912088937,24.454188015894218 L0.3107086350468453,24.352052120668148 L-0.02759582151597506,24.24567091443291 L-0.36490113107278077,24.135060417806862 L-0.7011564966846802,24.020237288323948 L-1.0363112795304295,23.901218817925113 L-1.3703150065325342,23.77802293035421 L-1.7031173779582929,23.65066817845876 L-2.034668274994699,23.519173741395946 L-2.3649177672961663,23.38355942174433 L-2.6938161205039357,23.243845642521613 L-3.021313803735822,23.10005344410903 L-3.347361497045341,22.95220448108276 L-3.6719100988491498,22.80032101895281 L-3.994910733321623,22.644425930809906 L-4.316314757755325,22.484542693880876 L-4.636073769886368,22.320695385993115 L-4.954139615183667,22.152908681948528 L-5.270464394100886,21.981207849807564 L-5.58500046928987,21.805618747083965 L-5.897700472774636,21.626167816850746 L-6.208517313084833,21.442882083757944 L-6.517404182347606,21.255789149962766 L-6.824314563336641,21.064917190972853 L-7.1292022364774486,20.870294951403153 L-7.43202128680789,20.67195174064709 L-7.732726110892868,20.46991742846262 L-8.031271423691976,20.264222440474 L-8.327612265379221,20.054897753589838 L-8.621704008113849,19.841974891338037 L-8.913502362761179,19.625485919118436 L-9.202963385562347,19.40546343937394 L-9.490043484752015,19.181940586680696 L-9.774699427123181,18.95495102275816 L-10.05688834453801,18.724528931399707 L-10.336567740383511,18.49070901332472 L-10.613695495971406,18.253526480952825 L-10.88822987688103,18.01301705310098 L-11.160129539244462,17.769216949604353 L-11.429353535972695,17.52216288586173 L-11.695861322922081,17.271892067306396 L-11.959612765000173,17.018442183803085 L-12.220568142209984,16.76185140397196 L-12.478688155631584,16.502158369440636 L-12.733933933340374,16.239402189024904 L-12.98626703626108,15.973622432839065 L-13.235649463956594,15.704859126336743 L-13.482043660350588,15.433152744283326 L-13.725412519383372,15.158544204660561 L-13.9657193906,14.881074862504384 L-14.202928084669562,14.600786503677131 L-14.437002878835234,14.317721338574678 L-14.667908522294045,14.031921995769657 L-14.89561024150542,13.743431515591862 L-15.12007374542797,13.452293343646474 L-15.341265230683685,13.158551324271258 L-15.55915138664847,12.862249693933883 L-15.773699400468676,12.563433074570021 L-15.984876962002602,12.262146466863388 L-16.19265226868627,11.958435243468863 L-16.39699403032274,11.652345142179577 L-16.597871473794314,11.343922259038916 L-16.79525434769691,11.033213041398591 L-16.98911292689577,10.72026428092388 L-17.17941801700191,10.405123106547011 L-17.366140958768746,10.087836977369696 L-17.54925363240809,9.768453675515888 L-17.728728461824836,9.447021298936047 L-17.904538418769828,9.123588254163781 L-18.076657026910212,8.798203249025978 L-18.245058365816725,8.470915285307528 L-18.409717074867157,8.141773651371885 L-18.57060835706558,7.810827914738464 L-18.727707982776696,7.4781279146179145 L-18.880992293374735,7.143723754406462 L-19.030438204806355,6.807665794140572 L-19.17602321106699,6.47000464291297 L-19.317725387590194,6.1307911512510405 L-19.455523394549417,5.790076403458851 L-19.58939648007167,5.447911709924199 L-19.719324483362684,5.104348599391372 L-19.84528783774309,4.759438811201042 L-19.96726757359505,4.4132342874986605 L-20.085245321219002,4.065787165412081 L-20.199203313600133,3.717149769199825 L-20.30912438908395,3.3673746023714046 L-20.4149919939608,3.016514339780388 L-20.516790184958815,2.6646218196917126 L-20.61450363164487,2.3117500358245606 L-20.708117618733294,1.957952129371646 L-20.79761804830199,1.6032813809962847 L-20.88299144191548,1.2477912028085743 L-20.964224942654695,0.8915351303217798 L-21.041306317053238,0.5345668143900286 L-21.11422395693964,0.1769400131286445 L-21.182966881185553,-0.18129141618158462 L-21.247524737359445,-0.5400735252050568 L-21.30788780328563,-0.8993522826758324 L-21.364046988508424,-1.2590735825345885 L-21.41599383566109,-1.6191832520767595 L-21.463720521739535,-1.9796270601106696 L-21.507219859280372,-2.3403507251246163 L-21.546485297443386,-2.7012999234615265 L-21.58151092299801,-3.062420297499829 L-21.61229146121387,-3.4236574638394757 L-21.638822276655137,-3.7849570214919193 L-21.66109937387859,-4.146264560072768 L-21.679119398035326,-4.507525667995738 L-21.692879635375995,-4.868685940666769 L-21.702378013659466,-5.229690988677216 L-21.7076131024649,-5.590486445994765 L-21.70858411340719,-5.951017978150676 L-21.70529090025565,-6.31123129042232 L-21.69773395895608,-6.671072136009814 L-21.685914427556035,-7.030486324205432 L-21.66983408603346,-7.389419728554489 L-21.649495356028652,-7.747818295006525 L-21.624901300479543,-8.105628050055705 L-21.596055623160417,-8.462795108869063 L-21.56296266812419,-8.819265683401342 L-21.525627419048153,-9.17498609049518 L-21.484055498483496,-9.5299027599657 L-21.438253167008547,-9.883962242667979 L-21.38822732228594,-10.237111218546287 L-21.333985498023882,-10.589296504663817 L-21.2755358628416,-10.940465063211885 L-21.212887219039146,-11.29056400949734 L-21.146049001271845,-11.639540619906596 L-21.075031275129447,-11.987342339845737 L-20.999844735620265,-12.333916791655115 L-20.920500705560613,-12.679211782497061 L-20.83701113386956,-13.023175312216019 L-20.749388593769496,-13.365755581169665 L-20.657646280892667,-13.70690099802958 L-20.56179801129394,-14.046560187550783 L-20.461858219370153,-14.384681998308762 L-20.35784195568636,-14.721215510402484 L-20.24976488470929,-15.056110043122885 L-20.13764328244827,-15.38931516258519 L-20.02149403400419,-15.720780689324064 L-19.901334631026636,-16.050456705850383 L-19.777183169079727,-16.37829356416867 L-19.649058344916956,-16.704241893253972 L-19.516979453665556,-17.028252606486877 L-19.38096638592073,-17.350276909045764 L-19.241039624750197,-17.67026630525514 L-19.09722024260949,-17.988172605888963 L-18.949529898168542,-18.303947935427743 L-18.797990833049983,-18.61754473926834 L-18.64262586847963,-18.928915790885565 L-18.483458401849653,-19.238014198944384 L-18.32051240319506,-19.544793414361525 L-18.153812411583885,-19.84920723731554 L-17.983383531421723,-20.15120982420439 L-17.809251428671015,-20.450755694549372 L-17.631442326985916,-20.747799737844247 L-17.44998300376312,-21.042297220348683 L-17.26490078610926,-21.334203791825047 L-17.076223546725515,-21.623475492217402 L-16.883979699710114,-21.910068758271727 L-16.688198196279295,-22.1939404300963 L-16.48890852040736,-22.47504775766149 L-16.286140684386428,-22.753348407237773 L-16.079925224306752,-23.028800467771017 L-15.870293195458114,-23.301362457194077 L-15.657276167652988,-23.570993328673893 L-15.440906220472211,-23.83765247679301 L-15.221215938433932,-24.101299743664605 L-14.998238406086568,-24.361895424980023 L-14.772007203026327,-24.619400275988195 L-14.542556398840226,-24.87377551740575 L-14.309920547975377,-25.124982841257022 L-14.074134684535235,-25.372984416643025 L-13.835234317003561,-25.617742895438713 L-13.593255422896924,-25.859221417917507 L-13.34823444334673,-26.097383618302135 L-13.100208277611252,-26.332193630241225 L-12.849214277518712,-26.56361609221072 L-12.595290241842307,-26.79161615283906 L-12.338474410607823,-27.016159476155757 L-12.078805459334763,-27.237212246762283 L-11.816322493212077,-27.454741174924468 L-11.551065041208986,-27.66871350158584 L-11.28307305012203,-27.879097003301094 L-11.012386878559337,-28.08585999708871 L-10.739047290862704,-28.28897134520234 L-10.463095450968591,-28.488400459820074 L-10.184572916209039,-28.684117307650823 L-9.903521631053312,-28.876092414457194 L-9.619983920791196,-29.06429686949423 L-9.334002485158893,-29.248702329863278 L-9.045620391908672,-29.42928102478033 L-8.75488107032304,-29.606005759758126 L-8.461828304674645,-29.778849920701493 " />
			<path d="M-8.461828304674427,-29.77884992070162 L-8.26166045045666,-29.893922544904264 L-8.06046138497244,-30.007188066538497 L-7.858245062311667,-30.118638630114205 L-7.655025507115745,-30.228266506017025 L-7.450816813604927,-30.33606409104448 L-7.245633144600795,-30.442023908933255 L-7.039488730544013,-30.54613861087772 L-6.832397868507373,-30.648400976039607 L-6.624374921204241,-30.748803912048825 L-6.415434315992417,-30.847340455495306 L-6.205590543873546,-30.944003772412007 L-5.994858158488093,-31.038787158748825 L-5.783251775105979,-31.131684040837587 L-5.570786069612948,-31.22268797584795 L-5.357475777492725,-31.311792652234246 L-5.143335692805039,-31.398991890173214 L-4.928380667159589,-31.484279641992604 L-4.712625608686018,-31.567649992590606 L-4.496085480999961,-31.649097159846097 L-4.278775302165247,-31.728615495019643 L-4.0607101436523365,-31.806199483145292 L-3.841905129293032,-31.881843743413036 L-3.622375434231577,-31.955543029542 L-3.4021362838721867,-32.02729223014431 L-3.1812029528231083,-32.097086369079584 L-2.9595907638372285,-32.16492060580004 L-2.737315086749394,-32.23079023568623 L-2.514391337410437,-32.29469069037331 L-2.2908349766180045,-32.35661753806788 L-2.0666615090442892,-32.41656648385537 L-1.8418864821607048,-32.47453336999788 L-1.6165254851596025,-32.53051417622256 L-1.390594147873081,-32.58450502000043 L-1.16410813968898,-32.63650215681565 L-0.9370831684641523,-32.68650198042523 L-0.7095349794350412,-32.734501023109104 L-0.4814793541256721,-32.78049595591067 L-0.2529321092531269,-32.824483588867686 L-0.023909095630604504,-32.86646087123343 L0.20557380293193628,-32.90642489168837 L0.4355006707293727,-32.94437287854201 L0.6658555612652624,-32.980302199925184 L0.8966224983577851,-33.01421036397254 L1.1277854772477864,-33.04609501899535 L1.3593284657087619,-33.0759539536447 L1.5912354051588027,-33.10378509706472 L1.8234902117742795,-33.129586519036344 L2.0560767776053748,-33.15335643011109 L2.2889789716932247,-33.175093181735186 L2.5221806411886805,-33.19479526636393 L2.755665612472584,-33.21246131756623 L2.9894176922774713,-33.22809011011935 L3.223420668810677,-33.24168056009394 L3.457658312878677,-33.25323172492914 L3.692114379012656,-33.262742803498014 L3.926772606595218,-33.27021313616307 L4.161616720988137,-33.27564220482205 L4.39663043466107,-33.2790296329438 L4.631797448321169,-33.28037518559445 L4.867101452043529,-33.27967876945368 L5.102526126402347,-33.276940432821185 L5.338055143602739,-33.27216036561332 L5.573672168613179,-33.265338899349956 L5.80936086029837,-33.256476507131474 L6.045104872552619,-33.24557380360594 L6.280887855433476,-33.23263154492651 L6.516693456295712,-33.21765062869893 L6.75250532092543,-33.200632093919346 L6.988307094674312,-33.1815771209022 L7.224082423593876,-33.16048703119841 L7.4598149555697315,-33.13736328750365 L7.695488341455651,-33.112207493556994 L7.931086236207456,-33.0850213940296 L8.16659230001663,-33.05580687440379 L8.401990199443567,-33.02456596084221 L8.637263608550356,-32.99130082004734 L8.872396210033076,-32.95601375911125 L9.107371696353443,-32.91870722535554 L9.342173770869877,-32.87938380616165 L9.576786148967692,-32.83804622879136 L9.811192559188523,-32.79469736019773 L10.04537674435886,-32.74934020682617 L10.279322462717499,-32.70197791440598 L10.513013489042045,-32.65261376773218 L10.746433615774166,-32.60125119043765 L10.979566654143674,-32.54789374475577 L11.212396435291296,-32.492545131273246 L11.444906811390059,-32.43520918867358 L11.677081656765214,-32.37588989347075 L11.90890486901261,-32.314591359733456 L12.14036037011552,-32.25131783879978 L12.371432107559665,-32.18607371898236 L12.832360215605007,-32.04969191898387 L13.291561325343253,-31.905483793927637 L13.748908048062146,-31.753489349133694 L14.204273509481926,-31.593750749954395 L14.657531384951993,-31.426312310077176 L15.10855593449512,-31.251220479231325 L15.557222037689463,-31.068523830302208 L16.003405228378664,-30.878273045856453 L16.446981729200495,-30.680520904081927 L16.887828485924402,-30.475322264146335 L17.325823201588435,-30.26273405097852 L17.760844370426113,-30.042815239476724 L18.1927713115738,-29.815626838148123 L18.62148420254924,-29.581231872184244 L19.046864112491953,-29.339695365976873 L19.46879303515631,-29.091084325079446 L19.88715392164808,-28.83546771761874 L20.301830712895402,-28.572916455162186 L20.71270837184519,-28.303503373046023 L21.119672915375958,-28.02730321016976 L21.522611445918358,-27.74439258826259 L21.921412182774475,-27.454849990627462 L22.31596449312736,-27.158755740368736 L22.706158922732076,-26.856191978109443 L23.09188722627984,-26.54724263920434 L23.473042397426745,-26.231993430455102 L23.849518698478786,-25.91053180633404 L24.221211689724974,-25.58294694472308 L24.58801825841034,-25.249329722174547 L24.949836647340824,-24.90977268870077 L25.30656648311213,-24.56437004209944 L25.658108803954693,-24.213217601821842 L26.00436608718704,-23.856412782391217 L26.345242276269925,-23.494054566378622 L26.680642807453708,-23.126243476943817 L27.010474636011697,-22.75308154994875 L27.33464626205198,-22.3746723056514 L27.653067755900786,-21.99112071998784 L27.965650783050215,-21.60253319545046 L28.272308628663417,-21.209017531570453 L28.572956221630545,-20.810682895012743 L28.867510158168578,-20.407639789291636 L29.155888724958736,-20.00000002411563 L29.438011921814848,-19.587876684369878 L29.713801483876512,-19.171384098744852 L29.98318090332087,-18.75063780802002 L30.24607545058689,-18.32575453301123 L30.502412195106395,-17.89685214219075 L30.75212002553602,-17.464049618988913 L30.995129669484463,-17.027467028786496 L31.231373712729603,-16.587225485606933 L31.46078661792013,-16.143447118517596 L31.683304742756526,-15.696255037749529 L31.898866357646288,-15.245773300544952 L32.10741166282859,-14.792126876742108 L32.308882804963545,-14.335441614106887 L32.50322389318154,-13.87584420342091 L32.6903810145881,-13.413462143335778 L32.870302249220096,-12.94842370500319 L33.04293768444906,-12.480857896490765 L33.20823942882758,-12.010894426993406 L33.366161625375156,-11.538663670850193 L33.516660464299434,-11.064296631376761 L33.65969419514974,-10.587924904523168 L33.79522313839916,-10.10968064236734 L33.92320969645226,-9.6296965164543 L34.043618364075115,-9.148105680991234 L34.15641573824499,-8.665041735908686 L34.26157052741674,-8.1806386897981 L34.35905356020361,-7.695030922735983 L34.44883779346971,-7.208353149005033 L34.53089831983215,-6.720740379722541 L34.60521237457072,-6.232327885386427 L34.671759341943144,-5.743251158349361 L34.730520760904156,-5.2536458752313075 L34.781480330226806,-4.76364785928096 L34.82462391302474,-4.273393042696551 L34.859939540673864,-3.783017428916302 L34.8874174161327,-3.292657054889251 L34.90704991666014,-2.802447953336721 L34.91883159593016,-2.31252611501497 L34.922759185542645,-1.8230274509896085 " />
			<path d="M4.24736260364708,-4.005862951516425 L4.248671709387288,-3.9242445763208216 L4.252597574052812,-3.842530453355854 L4.2591358415900675,-3.760811250825466 L4.268279257280372,-3.6791776425697678 L4.2800176757896224,-3.5977202074553354 L4.294338072425333,-3.5165293288708828 L4.311224557588552,-3.435695094439825 L4.330658394404612,-3.3553071960610232 L4.352618019513157,-3.2754548303886173 L4.377079066994371,-3.196226599861366 L4.404014395404879,-3.117710414391319 L4.433394117893292,-3.039993393820901 L4.465185635362005,-2.963161771256642 L4.499353672638443,-2.887300797386804 L4.535860317615622,-2.8124946458890845 L4.574665063318594,-2.7388263200333425 L4.6157248528501,-2.666377560582988 L4.65899412716556,-2.5952287550972155 L4.704424875624396,-2.5254588487347283 L4.751966689261584,-2.457145256657915 L4.801566816720348,-2.39036377813468 L4.8531702227839,-2.3251885124332317 L4.9067196494413245,-2.2616917766031546 L4.962155679419807,-2.1999440252339983 L5.019416802112742,-2.1400137722803967 L5.078439481830566,-2.081967515040485 L5.139158228298553,-2.025869660371959 L5.201505669323406,-1.971782453227625 L5.265412625547961,-1.9197659075897626 L5.330808187211094,-1.8698777398799282 L5.397619792827637,-1.8221733049180702 L5.465773309701016,-1.7767055345020344 L5.535193116179274,-1.7335248786755963 L5.6058021855631965,-1.692679249750197 L5.6775221715734565,-1.6542139691424902 L5.750273495281932,-1.6181717170866894 L5.823975433410744,-1.5845924852775126 L5.898546207901038,-1.5535135324962734 L5.97390307665214,-1.5249693432693503 L6.049962425330362,-1.4989915896049135 L6.12663986014566,-1.4756090958503543 L6.203850301493129,-1.454847806709418 L6.281508078355464,-1.436730758454535 L6.35952702336166,-1.4212780533662697 L6.437820568396437,-1.4085068374282712 L6.51630184065433,-1.3984312813024666 L6.594883759031847,-1.3910625646056047 L6.673479130750769,-1.3864088635045935 L6.752000748105338,-1.3844753416444098 L6.830361485226031,-1.385264144418627 L6.90847439475251,-1.388774396588937 L6.986252804308517,-1.3950022032562925 L7.0636104126716495,-1.4039406541826032 L7.140461385531303,-1.415579831458186 L7.216720450728554,-1.4299068205064582 L7.2923029928722665,-1.4469057244136696 L7.367125147226503,-1.466557681567774 L7.441103892764984,-1.4888408865868574 L7.514157144289404,-1.5137306145139129 L7.586203843509387,-1.5411992482511154 L7.657164048982975,-1.5712163092031477 L7.726959024817915,-1.6037484910955824 L7.795511328035278,-1.6387596969307974 L7.862744894498484,-1.6762110790404043 " />
			<path d="M7.862744894498502,-1.6762110790404146 L7.959257862508233,-1.7357571666410303 L8.052513143347525,-1.8003676269986881 L8.14228607687664,-1.869886807855178 L8.228360392235526,-1.9441472314146557 L8.31052872885926,-2.022969997812322 L8.388593136027826,-2.106165216099865 L8.462365549746714,-2.1935324617093905 L8.531668245809579,-2.284861259293758 L8.596334267951404,-2.3799315897801283 L8.656207830060776,-2.4785144204151828 L8.711144691482268,-2.5803722565250853 L8.761012504504817,-2.6852597136609546 L8.805691133198945,-2.792924108751494 L8.845072942834742,-2.9031060688386434 L8.879063059183355,-3.0155401559297523 L8.907579597077323,-3.129955506460956 L8.9305538576791,-3.2460764838312235 L8.947930493982591,-3.3636233424350728 L8.95966764414893,-3.482312901594239 L8.965737032355307,-3.6018592277647308 L8.966124036913921,-3.721974323375781 L8.960827725496895,-3.8423688206412225 L8.949860857382332,-3.9627526786718317 L8.933249852716102,-4.082835882209231 L8.911034728863402,-4.202329140298053 L8.883269004003408,-4.320944583213188 L8.850019568199295,-4.438396455963169 L8.811366522254225,-4.55440180669897 L8.767402984741484,-4.668681168369801 L8.718234867673692,-4.780959231983707 L8.663980621351485,-4.890965509851046 L8.604770949006362,-4.998434987213024 L8.54074849192516,-5.103108760685459 L8.472067485814689,-5.204734661979718 L8.398893389234418,-5.303067865398205 L8.321402484992301,-5.397871477640914 L8.239781455464058,-5.488917108502136 L8.154226932858984,-5.575985421082471 L8.064945025515721,-5.658866660190631 L7.972150821369233,-5.737361157662062 L7.876067869785121,-5.811279813377052 L7.776927643009625,-5.880444550819473 L7.6749689785327035,-5.944688746078711 L7.570437503707606,-6.00385762926126 L7.463585044013063,-6.0578086573449506 L7.354669016383647,-6.106411857577577 L7.243951809069835,-6.149550140592643 L7.1317001495217305,-6.187119582487895 L7.018184461819266,-6.219029675187114 L6.903678215196918,-6.2452035444819956 L6.788457265232362,-6.265578135228846 L6.672799189286227,-6.280104363253954 L6.556982617793917,-6.288747233601658 L6.441286563020491,-6.291485924840266 L6.325989746895676,-6.288313839222703 L6.211369929548323,-6.279238618581063 L6.0977032401579345,-6.264282125916767 L5.985263511735278,-6.243480392730678 L5.87432162143468,-6.216883532220058 L5.765144837987236,-6.184555618551487 L5.657996177827029,-6.146574532500583 L5.553133771461498,-6.103031773830391 L5.45081024161244,-6.054032240860446 L5.351272094625753,-5.999693977757529 " />
			<path d="M5.351272094625744,-5.9996939777575236 L5.288876061919628,-5.962009754655481 L5.22779207823757,-5.922211277217729 L5.1680809456501295,-5.880338160244863 L5.1098020997127165,-5.836432083602199 L5.053013550304339,-5.790536750732261 L4.997771823885453,-5.74269784515304 L4.94413190723238,-5.692962984985312 L4.8921471927043045,-5.641381675554285 L4.841869425097327,-5.588005260112748 L4.793348650138482,-5.532886868734777 L4.746633164670982,-5.476081365430864 L4.701769468580271,-5.417645293537117 L4.658802218508741,-5.357636819432873 L4.617774183405192,-5.296115674642778 L4.578726201953268,-5.233143096380926 L4.541697141921247,-5.168781766596261 L4.506723861473663,-5.103095749579932 L4.473841172483241,-5.036150428196653 L4.443081805879688,-4.9680124388036 L4.414476379069825,-4.89874960492159 L4.388053365461479,-4.828430869724575 L4.363839066121496,-4.757126227414658 L4.341857583596044,-4.684906653550925 L4.322130797919316,-4.611844034401447 L4.3046783448344685,-4.538011095388779 L4.289517596248505,-4.463481328700183 L4.276663642940542,-4.388328920134619 L4.266129279540673,-4.312628675259317 L4.257924991794396,-4.236455944949466 L4.252058946125253,-4.159886550385082 L4.248536981506099,-4.082996707579764 L4.24736260364708,-4.0058629515164474 " />
			<path d="M21.675845293798673,22.102944863903684 L15.06883679923655,25.940897392302652 " />
			<path d="M-8.461828304674427,-29.77884992070162 L-15.06883679923655,-25.940897392302652 " />

       </g>
    </g>
    <g transform="translate(20,210.0)" stroke="rgb(0,0,255)">
        <line x1="30" y1="-30" x2="75" y2="-33" stroke-width="3" stroke="#000000" />
         <text x="80" y="-30" style="stroke:#000000">X </text>

        <line x1="30" y1="-30" x2="30" y2="-75" stroke-width="3" stroke="#000000" />
         <text x="25" y="-85" style="stroke:#000000">Y </text>

        <line x1="30" y1="-30" x2="58" y2="-15" stroke-width="3" stroke="#000000" />
         <text x="65" y="-5" style="stroke:#000000">Z </text>
        <!--
            <line x1="0" y1="0" x2="2.8697675827250704" y2="0" stroke-width="3" />
            <text x="0" y="20" style="stroke:#000000">1  mm </text>
        -->
    </g>
</svg>
